<mxfile host="app.diagrams.net" agent="Mozilla/5.0 (Windows NT 10.0; Win64; x64) AppleWebKit/537.36 (KHTML, like Gecko) Chrome/131.0.0.0 Safari/537.36" version="26.0.1">
  <diagram name="design 1" id="BWNliO9mEe6VM7bcfiWm">
    <mxGraphModel dx="3167" dy="1722" grid="1" gridSize="10" guides="1" tooltips="1" connect="1" arrows="1" fold="1" page="1" pageScale="1" pageWidth="1920" pageHeight="1080" math="0" shadow="0">
      <root>
        <mxCell id="0" />
        <mxCell id="1" parent="0" />
        <mxCell id="3lQF18eeAMnEESRaOkVQ-6" value="" style="rounded=0;whiteSpace=wrap;html=1;strokeColor=none;" parent="1" vertex="1">
          <mxGeometry y="101.97" width="1910" height="2508.03" as="geometry" />
        </mxCell>
        <mxCell id="xLVCNm-1Cixip9Uiv8k9-1" value="" style="rounded=0;whiteSpace=wrap;html=1;strokeColor=none;fillColor=#FFE8CC;" vertex="1" parent="1">
          <mxGeometry x="-2" y="102" width="1912" height="268" as="geometry" />
        </mxCell>
        <mxCell id="3lQF18eeAMnEESRaOkVQ-8" value="&lt;b&gt;&lt;font&gt;Timetable&lt;/font&gt;&lt;/b&gt;" style="text;html=1;align=center;verticalAlign=middle;whiteSpace=wrap;rounded=0;fontFamily=DM Sans;fontSource=https%3A%2F%2Ffonts.googleapis.com%2Fcss%3Ffamily%3DDM%2BSans;fontSize=36;fontColor=#000000;" parent="1" vertex="1">
          <mxGeometry x="806" y="140" width="309" height="60" as="geometry" />
        </mxCell>
        <mxCell id="xLVCNm-1Cixip9Uiv8k9-2" value="" style="shape=image;verticalLabelPosition=bottom;labelBackgroundColor=default;verticalAlign=top;aspect=fixed;imageAspect=0;image=data:image/png,iVBORw0KGgoAAAANSUhEUgAAB3kAAABxCAYAAADYkhmnAAAAAXNSR0IArs4c6QAAAARnQU1BAACxjwv8YQUAAAAJcEhZcwAADsMAAA7DAcdvqGQAAEihSURBVHhe7d15fFTV/f/x170zSSYbJAiYsIhBkQZEFpcCilqgKsSlgtoK2lZBkEJtFVyqKW39ghtYW4WfRUBaFfpVAasIWIuBAl8WURZBAghE1gwSkkBCMklm7v39MZOY3EwgYBbA9/PxmIfJ/Zy7zM293pD3nHOMu+66y0ZERERERERERERERERERM4Khm3bCnlFRERERERERERERERERM4SpnOBiIiIiIiIiIiIiIiIiIicuRTyioiIiIiIiIiIiIiIiIicRRTyioiIiIiIiIiIiIiIiIicRRTyioiIiIiIiIiIiIiIiIicRRTyioiIiIiIiIiIiIiIiIicRRTyioiIiIiIiIiIiIiIiIicRRTyioiIiIiIiIiIiIiIiIicRRTyioiIiIiIiIiIiIiIiIicRRTyioiIiIiIiIiIiIiIiIicRRTyioiIiIiIiIiIiIiIiIicRRTyioiIiIiIiIiIiIiIiIicRRTyioiIiIiIiIiIiIiIiIicRRTyioiIiIiIiIiIiIiIiIicRQzbtm3nQqk7tm1jWRaWZREIBAgEAti2XfECMAwDwzAwTROXy1XxMgzDuTkRERERERERERERERER+Z6rl5DX7/eTl5fH8ePHnaVGZRgGMTExnHfeeZhm/XVitiwLn89HcXExBQUFZGdn8/XXX/P111+TnZ1Nbm4ux48fp6ysDNM08Xg8NG3SlBYtW9C2bVsuvPBCLrjgApo1a0ZsbCzR0dG43e6zKvTNzc2loKCgIsiuzDAMIiIiaNmyJW6321kWERERERERERERERERkROol5D3wIEDPP/888ybN89ZalQul4tbb72V559/npiYmDoPTUtKSjh69CgHDhxgzZo1rFixgnXr1rF//35KSkrCBp7huFwuEhISSE1NpXfv3vTp04cf/OAHtGzZktjYWFwul3OVM0ogEGDs2LHMnTs37Hs2DIMOHTrw2rTX6HBJB2dZRERERERERERERERERE6gXkLeffv28eSTT/LWW285S43K5XLx05/+lGnTphEbG1tnIW9JSQmHDx9mw4YNzJ07l0WLFnHkyJGwAefpiIyM5LLLLmPQoEH079+fiy66iKZNm56xYW9eXh6XX345WVlZzlKFpKQk/viHP/LAiAfqtVe1iIiIiIiIiIiIiIiIyLlG6dp3YFkWXq+Xf//73/zmN7/hjjvu4I033iAnJ6fOAl6A0tJSPvvsM5566inuueceXnnlFTZu3EhhYWGd7qeuLFmyhIMHDzoXV5Gbm8vijxZTWFjoLImIiIiIiIiIiIiIiIjICSjkPU0+n48NGzbw/PPPc8899zB//nxKS0udzeqUbdvs2LGDp59+ml/96lfMnTuXAwcOEAgEnE0bTVlZGW+++SZlZWXOUhWlpaXs2LGDLVu2nJFBtYiIiIiIiIiIiIiIiMiZSiHvaTh69CiLFi1izJgxvPLKKxQUFDibnJBpmrjdbtzuCNxuNy6X65SGjrYsi08//ZSHHnqIl156ia1bt+L3+53NGsWePXtYv349lmU5S9UcPnyYjz/++IwKqUVERERERERERERERETOdA0+J69hGHg8HqKiopyleudyubj99tv5y1/+QmxsrLNcKzk5OcydO5dnnnmG/fv3n7QXqmmaREdHk5iYSLNmzUhISCAuLg6Px4Pb7ca2bUpLSykqKuLo0aPk5eWRl5fHsWPHKCsrq9X2Bw0axCOPPMKVV16J2+12Nmkwtm0zefJk/vCHP1BcXOwsV+N2u7n++ut54x9vkNwq2VkWERERERERERERERERkTAaPOSNjo6mZ8+e9OzZ01mqd6Zp0qVLF37yk5+cVsh8JOcIf//H35k0aRLffPPNCQPYiIgIWrVqRceOHenYsSOXXHIJHTp0oF27djRr1ozo6GhcLldFyFtYWEh2dja7du1i586d7Nixg23btpGVlUV+fv4Je7sahkHfvn3505/+RK9evTDNxumgffz4cW666SZWr15d7XjdbjeBQKDaObvkkkt44YUXuPXWW0+pN7OIiIiIiIiIiIiIiIjI91WDh7zNmjXj8ccf59FHH3WWGszphIkFBQXMmjWL5557juzsbGe5gsvlom3btlx99dVcc801XHfddVx88cVVetjWtP/yH4Vt2+Tn57N+/XpWrFjJypUr2LhxI3l5edVC0nLlQe/kyZPp2rVrjfuoL7Zts2rVKgYPHsyhQ4eq1FwuF927dyczM5Pjx49XqTVp0oRf/OIXPP/880RHR1epiYiIiIiIiIiIiIiIiEh1jdPlM8QwjEZ5narSklLef/99/vrXv+L1ep3lCjExMdx444387ne/Y/LkyYwcOZLU1FQiIiJqtf/yummaJCYm0q9fP5566kkmTJjAgw8+SOfOnYmMjHSuBqGQNSMjgwkTJnDw4MEaw+D6YlkW7777LkePHnWW8Hg8PPDAA6SmpjpLFBYWsnHjRvbs2eMsiYiIiIiIiIiIiIiIiEgYjRryng0sy2LNmjW88sor7N27t8bwtFmzZowYMYJnnnmG4cOHc/75558w0D2Z8sA3MjKSnj178vhjj5Oens51111HTEyMszmEgt733nuPv/zlL7WaE7cuHTlyhBUrVlBaWlpluWEYJCcn079/f25Ou7naUNKWZbFv3z5WrlyJZVlVaiIiIiIiIiIiIiIiIiJSnULekzh06BAzX5/J1q1b8fv9zjIALVu2ZNzYcYwfP56uXbtimuZ3CnidDMMgvkk8d9xxB+lPpTNgwADi4uKczSAUmr766qssWLCgwUJT27ZZunQp+/btq7ZP0zS54YYbaN26NTcNuImEhIQqdULneMWKFRw7dsxZEhEREREREREREREREREHhbwnUFZWxrx588jIyKCwsNBZBiAhIYHHHnuM3/z2N2EDzLpiGAYul4tr+lzDY489Rv/+/Wucw/b48eNMnjz5hENL1yW/38/7778fNqSNiIjgzjvvJCIigpQLU+jRo4ezCT6fj23btpGZmeksiYiIiIiIiIiIiIiIiIiDQt4T2LFjB++99x7Z2dnOEgCRkZH8+te/ZsSIEURHR9dp792amKbJFVdcwaOPPkrXrl1xu93OJgB88cUXTJ8+nUAg4CzVud27d7Np0ybKysqcJS6++GK6deuGaZrExcdx6623Vjtm27bZu3cvy5cvr7G3tIiIiIiIiIiIiIiIiIgEKeStQWlpKfPnz2fLli1hg1LDMLj55pt58MEHiYuLa5CAt5xpmsF5eh9/nOTk5LD7Lisr44033mDfvn3OUp2ybZsPP/wQr9dbbahmwzC44447aNKkCQAej4c+ffpw/vnnV2lHaE7fdevWcejQIWdJRERERERERERERERERCpRyFuDrKwsVqxYQU5OjrMEQKtWrfjtb39Ly5Ytw4as9c00TW666SZ+9rOfERMT4yxj2zYHDx5k1qxZ1cLXulRcXMwnn3xCQUGBs0RkZCS33XYbphm8zEzTJDk5mV69ejmbUlZWxs6dO9mwYQO2bTvLIiIiIiIiIiIiIiIiIhKikDeMQCDARx99RGZmZtiA1OVyMWrUKLp3715t6OGGFBUVxciRI7ngggsqgtTKSkpKmDt3Lnl5edRXbvrZZ5+xY8eOsMMs9+jRg0s6XFJlWZMmTbj11luJjIysshxgz549rFy5kpKSEmdJREREREREREREREREREKqJ4NCfn4+a9euxev1OksAXHjhhdx+++1he9A2JMMwSElJ4f7778fj8TjLFb15ly5dCtR9ymtZFgsWLODw4cNhe9/ec889eKKrHldUVBTdunWjXbt2VZYDHDt2jM2bN7Nnzx5nSURERERERERERERERERCFPKGsWXLFnbv3h22d6ppmvzyl7+kbdu2YXvPNjTTNLnnnnto3rx52GGjjx8/zptvvhn2vXxXubm5rFu3jqKiImeJuLg4brjhhmrHZJomLVu25Ec/+lG1mmVZfPXVV6xduzZsD2oRERERERERERERERERUchbjd/vZ/ny5ezatctZgtBwwwMGDCA2NtZZajQtW7akf//+uFwuZwm/38+WLV+Sl5fnLH0ntm3zn//8h6+//jpsgNy3b18uuOCCakEuQEJCAjfddBPR0dHOEvv372ft2rVh5/gVEREREREREREREREREYW81RQVFbFz584aQ9GrrrqKpKSkM6IXbznTNBk5cmTY0NS2bQoLC9i4YWPYIZVPl2VZLFmyhJycHGcJwzAYOnQoERERzhIAkZGRXHLJJXTs2NFZwufzsW3bNrZv3+4siYiIiIiIiIiIiIiIiEh9hbyGYeDxeGjSpEm1V1xcHJGRkc5Vzhg5OTkUFRURGxtb7dibNm3KXXfdRUJCgnO1RnfZZZeRnJxc7ZibNGmCaZosXbbUucp3sn//fvbu3UtERES1/bVp04bevXuH7cVL6Ppo2bIlAwYMqLZufHw8Bw4cYOPGjRqyWURERERERERERERERCQMw67L7p0hZWVleL1ejh075izhMl2c1/y8GueQbWw+nw+v18vx48edJQBat25dEZyeSWzbZvv27QQCAWcJwzBoEt+ENm3bOEunrbi4mAMHDlBSUuIs4XK5uPjii3G73c5ShUAgwJEjR/jmm2+qXQemaXLeeefRokWLajURERERERERERERERGR77t6CXkJhY41OdODu7P12E903NTDsZ9of7XdV11sQ0REREREREREREREROT7pN5CXhERERERERERERERERERqXsKeUVEREREREREREREROScZu9chbXnM/Buxz6yB7vgMJQWgW05m8q5zjAhMgYjvgXGee0gqSNmuyswLu7tbHlGU8grIiIiIiIiIiIiIiIi5xx770asDe9hbfkISgqdZZGqouIwL70Js/vtGBd0c1bPON855LVtm0AgQFlZGYZhYNs2pmkSGRlZ45yqlmVRVlaG3+8nIiKCiIiIGtsClJaW4na7MU2zYt2oqChnMwgdT1lZGS6XC5fL5SxX1AEiIiIqjt80zbDtywX8AXwlPkzTJCoqCtM0nU0q+P1+AoFA8Bxg4A9U+v4E7/NkSkvLME0Dl+nCME+8Hdu2KSkpwe/34/F4cLvdziZV2LaN3+8HwO2OoKbDtCwLv9+PZVkYhoHb7T7heQMoKSmpaG8YBqZp4na7q52L8mOwLIuIiAhM0yQQCOD3+3G5XGHfg23bwevD5cbldlVcHy6XG7f7xMclIiIiIiIiIiIiIiLnHnvvRqwV07G2L3OWRGrF7Hg9Zp8Hzuiwt+akspZs2+bLL7/kqquuYsCAAdx2221MnDgRywrfvb20pJRPPvmEYcOGcdNNN/HrX/+aNWvWVASMToFAgD/84Q9kZWVh2zYFBQU8+OCDFBcXO5sCcPToUaZMmcLhw4edJQCKiop4/fXXGTduHDk5OXi9XhYuXMgXX3zhbFohNzeXPz39J37yk59w0003MX36dAoLw3/iw7ZtsrKyuO+++ygtLeVYwTHee+893nrrLWfTU2JZFn/4w3hefvllco7kOMtVBAIB5s+fX/Hz+PWvf83hw4c5UZ7/zTff8NJLL/HXv/4VfygED8cwDJ588kl+/OMbGDBgAOPHj2f37t0EAgFnUwgF3k8++SR9+/ZlwIAB/OxnP2P16tXOZhD62cyaNYsRI0aQmZmJZVksXryYoUOHMnfu3LDXVFlZGRMnTuTTdZ9SWlpKcXExY8eOJStrd9j2IiIiIiIiIiIiIiJy7gosfh7/jKEKeOU7sbYvwz9jKIHFzztLZ4zvHPICuFwu+vfvz5IlS1i8+CP++Mc/1tjTdeOmjWzdupVx48bx3//+l3vuuYd169axbds2Z9MKhYWFFQFledBbU2Bp2zbFxcU1Bny2bePxeNi+fTuLFi3C7/dTWlpaY8js9/t56c8v0bNnT95//32WLFlCUVERR48eDXsMhmHQunVrrr/+et566y2+/PJL/vWvf/HLX/7S2fSUFBUVERsby7/+9S/2798fdt/l9u7dy9y5c/n4449ZvHgxv/jFL3jrrbdqXMe2bb744gu++OILYmJiOPTNIWeTKizL4plnJvLxxx9zww03MHPmzBpDdUKh87Rp01iyZAnz5s2jT58+1XrxEjqOxMREALZu3UppaSn5+fmUlpbW2Fs4IiKCW265hSVLlnDgwAHmzp3LpZdeSnJyco3XoIiIiIiIiIiIiIiInFvsQzvw/+0urNVvOEsip81a/Qb+v92FfWiHs9To6iQFs22bY8eOsWvXLr7+OotjR485m0AoHMzOzsbj8dClSxdM06Rbt25YlsX+/fudzetNTEwMF154IS6Xi+zs7BrDT4Di4mJyjuSQnJxMTEwMERERjBgxgjVr1tTYmzgmJoabb76ZOXPmMG3aNJ577jlM0wwbbNbWJ598wtW9r+aGG26gqKiI0tJSZ5MKb7/9No899hhut5vIyEiuuuoqfvvb39a4/7KyMkpLS7nqqqto1aoVGzZsOOE5IRRmm6ZJnz592LdvH7m5eScM1vfv38+uXbvYs2dPjb1+CZ27qKgojhw5wldffYVpmqSkpNR47IZhcPnllxMVFcUnn3zC8uXLSUtLIzY21tlURERERERERERERETOQfbOVfhn3It98EtnSeQ7sw9+Gby+dq5ylhpVnYS8fr+fbdu28eabb/Luu++y46sTp9nlc/dW5vy+ssrtawoST1Vqaiput5ulS5eedJutWrXC44mu+D4nJ4dVq1bVGLTato3bHUHXrl05evRo2PlnT4Xf72fx4sVke7P50Y9+xPLly0/Yc7a4uLhKz1fLsjh+/HiNx7Bnzx4OHDjARRddxN69e9m2bVuNAbZT8L26se2az6Hf7+eDDz7gzTff5F//+hc+n8/ZpIrk5GTi4uJYtmwZJSUltGvXztmkCsMw+OUvf8mcOXO46aabaNGiRY3vVUREREREREREREREzh32zlX43xwJJeGn2RSpEyWF+N8ceUYFvXUS8rrdbnr06MGjjz7K6NGj6XJpFwyqh2ymaXLeeefh9/vZtWsXx44dqxim+bzzznM2h1CAFx8fz+HDhykoKCA7O5u4uDhns1MWHR1Nhw4dcLvdHDx40FmuEB0dzfDhw4mIcJOXl0deXh7Lly/nmmuuwePxOJsDUFpayurVq/D7/YwZM4YpU6bUOjQNJzs7m8jISN5++21eeukl5s2bx6FDh2oMpwcMGMBHH31Ebm4uBQUFbNq0iY8++ihskG5ZFrt27eK9997j9ddfZ8mSJeTk5LBnzx5n0yqKiorIz89nx44dJCQk0LRp0xqD1YiICO677z4ee/QxHnjgAaKiopxNqrjwwguJj48nMzOTuLi44LbDXE/lDMOgRYsWpKam0rlzZyIjI51NRERERERERERERETkHGMf2oH/7YfhBB3RROqMbeF/++EzZujmOgl5y0O1tWvXsnbtWrbv2E7ACj8k76WXXkqTJk344IMPWLFiBf/7v/9LVFQUHTt2dDaFUDDcr18/li9fztq1a/nwww8ZMGAAERERzqYQmh+4efPmuN1uZwlC22vSpAnNmjUjNTWVhIQEDhw4UGNg63K5KCkpYc6cOWRkZLBkyRLWrl1L7969w65j2zZ5eXl88P4HPP/883Tp0oUWLVqwc+fOsCHrydi2zbp16xgyZAhvv/027777Lo8//jiGYdQ4j/Dll19OVlYWH3/8MatXr+af//wnnTp1cjaDUC/b+Ph4RowYwdy5c5k7dy7XXXcde/bsqfF4W7RowZ49e1i2bBl/+9vfuP3222vsPVsewG7fvp01a9fw+eefc+TIkbDbNk2TuLg4kpKS8Hg8tGzZkosuuojExETim8SfMOgFSEpKOmmALCIiIiIiIiIiIiIi54bAe+nqwSsNq6QweN2dAQw7XNp2ioqLiyt6fpqmSWxsLK1atQob+hGaA/bQoUMcOXKEffv2YRgGV1xxBS1btgy7jm3bHD58mL1793L++eeTnJxcY4gbCATIzc2ladOmYXt0WpZFQUEBtmXTNKEpx44do6ioiKZNmxITE+NsDqH9FxUVsXPnTiIiImjfvj1RUVE1HmthYSFFRUW0bNkSKvV6bd26tbN5rXi9XuLi4oiNjcUwDEpKSikqOk58fHzY82DbNoFAgKysLI4dO0bHjh0r5qh1HnNZWRnFxcVEREQQHR2NbdscPXoUy7JITEys1t62bbxeLwUFBURGRtKyZUuio4NDWTvblrfPzs7m2LFjGIaBy+Xi/PPPJy4urlr78mGlLcvC5XJRWlpKbGwsRUVFuFwu4uPjq61TzrZtDh06RGJiooJeEREREREREREREZFzXGDx81ir33AuFmkQZq+f4xrwuHNxg6qTkBfHnLo1BXHhVN29QU2rnur2bduusV35tsrrzu9rcrrtnN/XhRO9v8pq0642bcpVfi+1Xc95idVmHb7DcYmIiIiIiIiIiIiIyLnL3rsR/4yhzsUiDco9fDbGBd2cixtMnQzXTChcK3+disrrnWjVU93+ido5t+P8vian2875fV2o7fZq0642bcpVfi+1Xa98nVM9D6fa9lTai4iIiIiIiIiIiIjI2claMd25SKTBNfZ1WGchr4iIiIiIiIiIiIiIiEh9svduxNq+zLlYpMFZ25dh793oXNxg6i3ktW077MuyrGrD955JnMcb7nUmqnxua3qdDuc2zpSXiIiIiIiIiIiIiIh8/1gb3nMuEmk0jXk91tmcvJUVFhaydu1avvrqK2eJqKgounXrRrdu3c7I4XULCwtZuXIlX3/9tbOEYRj07NmT1NRUIiMjneVGFQgEeOuttyguLnaWiIiIoFOnTvTs2fOUznlh4XHWrl3Dzp07z5hgNS4ujquvvpoLL7zwlN6LiIiIiIiI1IaPfK8PT/MEPG5nTURERESk8ZVN/CGUFDoXyykyUvpjsA0ra7+zdMYyOl4L25dzZiRWIVFxRDy11rm0QdRLyLtv3z6eeuopZs+e7SyRmJjIY489xqOPPnpGhnQ5OTmMGTOGd99911kCYOTIkTz99NM0b97cWWpUXq+XLl26kJub6yyRkJDAxIkTGTlyZK3PuW3bfPrpp/z+978nIyPjjAl5ExMTmTRpEnf/7G480R5nWURE5NzgXcTE8fNJ+tUMhnVzFsG7eCLp7yUx+rVhdHcWRc5Cvp2LmPrCi8xcvJU8kulx32gmPDSM7pV+5dZ1L3L6gvdPlnOxQy9GvzYMz7Od6PRkJvxoBtkZw0hyNjujbGDmiKmsBnrV8MwMqm07kbrkI2vxVCZOmsnCr/IgqQfDfjWBcfd2J0EfoBARETlt9s5V+N94wLm47lz/V9yXtncuheOZ2J+9TGBz/QSi5t0LMM8De8stBOp7JOqO6bgH340RiljsTTfin1c/76sumUP/i6tjc/hmHv4p42sX9HZ9Gnef7lC8AWvmeCxnvY64fz4d4+LezsX1rl6Ha7Ysq9rrTAkLa9KkSRNat25NdHR0tWO3LIuPPvqI/Pz8M+p92LbN3LlzKSwsrHa8lmURHR3N9ddfX+uAF8CyLD799FM2b95MIBCots3GeuXm5vLZZ59x6JtDzkMWERE5dxRmMnv6TDL2OQtBxVtmM3N6BtnOgshZKHN6P5I7pDHu3TxSBqSRNiCZ7EnD6dEimeEL8iva6boXOX3B+2fmSV7B+8vjaegP02YxdWAyyW2TSXv1ZEG0UzYZoeOv6ZkZVNt2InXEn8nMG5JpP3Ac8wpSSBuQRlpyNi/e34PEtsNZ9O3jrU5lvZpG8sCpnOqdVCtfTyWtbRpTqw98JyIi0qCsPZ85F9WtxPYYLcO8UtIw75yL+5o2zjXqhNEitJ9EZ6XuufqFAl7ffuxvNmLvbKSAt+eruNPXE/HIq7ULK/2+4H/LCpyVmsW2CZ7X8+vn51au3q/LGtTqvH2fRERE0POHPWnXrp2zBMD+/ftZv349JSUlzlKj8fv9vPXmW5SWljpLmKZJUlISF1xwgbN0Qjk5OWzdupUjR444S43Ktm1WrVrF7t27saz6+syFiIiIiDSIlWPoPSKDlN+tIi9vPQtfm8GM1xayviCPeff6mHnrYGY20r81Rc4lybdMYd4780KvKQwJdc9Nurvy8nH0AFIeXk/x4TyKP264Xry+fV68+71kacQ9OUesfqQ3w/+TwlOr88hbt5AZr81gxgfrKT48jyG+maQNmonXuVJdKMzCuy/0x8+65veRtT8Ln99ZEBERaWDe7c4l9SNnHmXjO1M2vjP+2S9j5ZYA8Ri9nzrLg7U0jLjgV3bmjfinDCWwydmmgZhRGJFR4IlyVsKy3r4x+DOZNql2vXgbUkNdlw5n97VYDwzD4KofXlXjnK9lZWXMmjWLo0ePOkuNwrZtli1bxo6vdoQNPaOjo7nllluIjo52lmpk2zbr16/n888/p6yszFludNu3b2fz5s0UFuovACIiIt/ykfVuOmlXJpPcthP9RkxldU7lupdF/zOciYu95C9Op19qMsmp/Uhfmg/ks/qVofRom0xy2x4MnZWJ88+D+Vtmkn5rD5LbJtOp73CmrqynLijyPeJl6qNTye85hUXP9CKhcsmdwKDX5zHak8HE1zIrV6rw7VzEiyP60altMslXppE+awP5Vf74XPm+SKbHz533BZCzmqnl20jtx7h3s07j+q/FfsKYPXs2U6dOdS6uMHXqVObMmeNcLHLKPD/oy6A7B4VeA+kRGgo9sfvASsu7kxQa2nnMk+MY8+yiYAjlXcTEEcMZPmImG/xe5j8SvF96/HwOmX4g/9t7qFPfccx3fjDDn8+GWZXuj1vTmb+z/C7bwMwR45i9M/hd1pxxDB8xkUXl6Zdj3U59h/Pi4ur3aFClZ9mVaaSHuZer8WWxaNLw4DMx7LNT5DTsn8rYV/Lp9fIiJvSs8nSD5oOYPX80nqUTmbKl0vLKz6Jw1+/GmcF70JdVcQ926jucqWvKn0fB3/PGzcmCnbMZN2I4w6dvqFj95M/L4P22+pXy+6EHaePnkxU6CO/iiQx/cjZZZDH7ydD/Dxyri4iINBT7yB7nonpnb59G4LONwW/cVQNJo8ujuMf8l4j09UQ8+V/c9z2N2bpKk2C7ni/gfmRNsN0T/8Z990OYzZytKmuD+dO5uMcsCG4zfL9EjJ5PV93/sBfC7h9CQ1GPeQgjJvitcdEC3GNm4+oaGtZ4zALcw57GvOoF3E9U6mHbLA3X3bODy9LXEDHmdVw9Ux0bdxzLSd6jedts3Fd1Cn4T2QlzzALct6UBI3GNWYB7zF8xOz4aOmdzcZWvU9EuyOjyEK5h/w7uM30N7pGv4upSv712w2mM6xKFvOElJSXTuXNnmjRp4iwBsHz5ctasWRO252xDKysrY+rUqTUGnrGxsdx1111hA+ua+P1+Nm/ezI4dO5ylM0JxcTGrVq3Cm10vn3sVERE5C+Wz6OfJtL9rJnl90pn6zDCSVoyhd4sevLitvE0xme/MZPakofR+2segp19kWMpWJvYdzJiH+jJoTjLD/vwi43rlM+f+Tgz957d/WsxfMJSULsOZz0DS//wiw9qsYkyfRPrN0rNYvgPvQuavgYEP1dBb0N2XKcU2u5+u/g9HAFaOI6VDGhM2pzDsmam8eJeHOff3IOWR1RVNNozvQfu75uC560Wm/jmdvl+l07vD0G+Hycyfw+Dk3qRv7s7oP0/lxfsTmH9Xe3pP+jZYrs31f9L91KCgoIAxY8bw3HPPOUs899xzjBkzhoKCUxiGSqQOVAzt/E4mxXw7hcDM6fOZfH8Kg1/KIHO/lw1vDqX3Q1OZ+OPejJkeXJa59EUGdxjKovJ/nvozebFPIj3un8iiz4K9dTcsmMjgDskMXZAfGkZ5PhtCjxzfxvnMnD6bzMLQur2qrpu5dCbjBravcp+X2/B0X3o/NIcN+714P1vERMe9XE3+IoantCftsZlkbPPi3Z9JxnTns1Pk1HkXz2c1AxlzX9inG/xoCsX2biZcGvp+24v0aNGbMSuSGPbMVNL75DHzrvYk/3wRFY+RfRnMnD6f9Ls6kZ4zkPQnh5GSPZMxvXrzYuhDEjWqxfOy/H7r/cgqku5/kalP9iVv+mDaJ5/8WSYiItLQ7ILDzkUNoA3mRRcFv8zPrOhFalzzOu47f4nRsnkwbYtsjpEyGNcv5uIKNQcwbl+Ae2AaRkJ8sF1MG4zUkbju/2uNIZ1x+6u4OqdiNAN71XisMBmicdsC3AMHB/cP4G6O0S4N17C5uMKFq4ntMVq2+TYZbNIeo+VFGLGVhzW+DtdNaRgx5T1sr8V1z/9gpnYLzeEbCS1/iDlwNu7bflixaeOa16seiyf0HofXMBRzs4swmsUHvzbjg/tu1gJoHRoiuxuu234ZPGeRoWC92UWV2gG9X8d950jMdqH3ZMZjtL4W887ZuLt/u6uG0DjXpULesKKiIhk4cCAXX3yxswRAUVERL7/8cqPPzVs+F+///d//he1x63a7ufrqq2nfPswk4Sfw9ddfs2nTprB/UIqKiuKqq65iwIABDBw4sF5fffv2pW3bts5DAGD16tXs2r0Lv9/50VMREZFzx+pXhjN8RPXXuDmOmdaWpjP4TRjyQSar/jyaQfeOZfbm3Uz50QbG3Te1ynCAmYcHsnD1ZEbfOYQJizYwpWcGUxcMJCO0bOw765kxAOYvzgiu4M8g/a45JD+zla0fTAi2eWMrW59JJeNXE8jQo1hOV2E+2STRvcPpzf/pLUsm7fcLyVo9g7H3DmLIo/NY9XIv8l+ZySIANjBveiapzyxk3qNDGHTnaCavWMXsX/eAnGCi5Fs8m/n+IcxcMZnRdwa3sT5jAgMTfMH7plbX/8n3U5MHH3yQZ599lt/97ndVgt7nnnuO3/3udzz77LOMHDmyyjoijWcRi5jN7uxstr42EA+Q/+oYJredwdbsbLa+PijYI983h9lLg2t4Z41h3BogYQjzDtvYtk3eO0PwkM+cu9LJ8PdlavYqnvpBsH3q71aRnb2K0RcC2zLIKEwiqU2ldV8fGNzuS1OY73j+ZO5MYUZmMcUFW5lxe7D35IbH0pkT/vPQrB4/lJle4IoJbC22se1itj6dClR/doqciuL8bEjqTmpoGMQT8zL1vnFsuGIyWzfPZuy9gxj951VkZYyGNweTHrqXghbB3dlsfWMsQ0ZNYOHmTxjtyWTy6xuAJAb+fgaTh6TAxUOZ/NoMZjwQ/MvmyZ+X4H11GOM+687kzVuZ/egQBo2azKp9nzDas4gX38wiacBTzHhmKCmkMPSZGcx4bRgN/HdTERGRb5UWOZfUjybXBXuNjllAxJP/xnVRc/hmIYH/LR8qeCSu64Mhp73pMfxP96Ds5cewcgFPKub1oX/LXfQCru7tgQLsjDsoe7oHZdNexvYBTfpj3vltUFrOuH0B7op1RhEIOxJwN8wmgC8He+UdlE3oQdnTo7COAe5UjD7O9sB7t1A2flJw34C9oTNl43viX1Wpjac5ZP+dwF86U/a38XDnU5jNoyB3IYGXe1A2oQf+jI1AFEaXh0IhY/m5CL3HCZXORdy1Yd+jNasnZR+tDX7jW0tgfGfKZv29UovmULqEwLTOlP1lFNXHsQUzuQl2UQn2l6Hz//SNWAdKgOYYl93tbF6/Guq6dFDIW4PLL7+crl27EhMT6rfusHLlSl577TV8vhP/4aa+2JbN/v37efXVV8nPD/+xypiYGEaPHk1kZKSzVCPbttm4cSOfffZZ2OGfe/TowdixY5k4cWKDvG6++WY8nup/+Dt48CDr168/Y4bNFhERqQ9Z6xaycEO2c3E1q9+bie8H40i/pdKQgO4URv96CKyZz8LKf6nunkpKxTdJpHQA+vTm276SCSQ3BzIzyQJYM5+Zvr6Mva9qb8rU24eS6pvJ/DVVFoucokQSHSNZ1lbSj8Yy4+mBwVDJ7yPfm8XWffkQ7HsIJJOSCpmvv8j8LfnBYS/dqQx5eiwDLw7+fulpm4KHRUx9KQNvKAhK+NFTTHggOGxt7a7/k+/nRJ544okqQW/lgPeJJ55wNhdpRKmMe3IQKUlJpD4wmkEAJDH6yWGkJiWRet8wghFsOS8L/xn8wFDKA8Po7ffi9Xrx9RnKsOaAbypz/uMhISmJRHdolcQkkpIS8LiBS0ezMDOb7H2zGeTJx+vNIsv77TDPWV9X7AiAgf9vNsN+4METl8qwlyfQC4D5LKwSkpVbzezpwX9HDxwxjMR8L15vPol3j6YvwJqZzHZsX+SUNE+sOg1BTUKjWgx5ciyp5fcB4PnRaMb9wMfM9yr3Wk+l75WVf9frS9/bwbv/xL8rnvx56WXhe6vh7nTGhj5wAaERNbLz+OTX3/7mKCIi8r3ijsdIaI2R0BrKn9PNr8XseW3w677XYkQCpRux5y0MBr+5Cwl8ERrWOflaXIBxRVcMgPy1BJaFRpo5MI3AruA8J0bbIcF6uWavVwp478O/0jkfSrmNBN68hbJnrsP/cSZGSn/Mnt0wylO/007/dmNNnxQMaHPBaN0GKMHO+i+0TcPsmoaRtxa7CIi8CLM3cM0Pg+fi2AasvPaYXdMw24K9bzcARvK3wyvXXgH2mt9gHQBy94edg9eadwf+53rgf3shdutrMbumQflo2mbt5vk92532j/lcFxcXx09/+lM6dOjgLAFQWlrK3/72N5YvXx42DK1vJaUlPPvss2zcuDFsb1aXy8V1111Hr169Tmmo5qKiIrZt28a+ffucJQD69evH9ddfT/fu3enWrVu9vq666iquvvpq2rSpPn663+9n2dJlHDxwsFF7U4uIiNSnIW9kk71uITNem1HlNXlI1T+25eX74MrulYLakC49SCWb/Bp6MZ1Q+d/R8/LwkcHwZAPDqPRKTScTH3l5jvVEassNHjJZf4LRVE8oP5OZj/SjU6KBERFNYnJ7Bk+vvLEkhr0xj2HumQzukki0EU3ylUOrzqd7zQQyXujN1sf6kRxvYCR2ot8j385BWLvrvxb7OYnKQa8CXjmTeSqFUEEn+qBGMfmhEcuyJvUjOTk59Epjamje2+Lq/5StJJ/VkwbTPtrAiE8kObk9PZ4MjTIRRkJcpQ9VtEmp+ECT1xuuT24eeaH7fNGI8uNKJrnDGIJ78MEJj03kBNwe2LKeWj3eCvPJJpUeXZyFVLpfCb78E/+iVf2eDOOkz8vgvZraXX1zRUTkLBEZvmNencv9MNgjdUIPyp7uHOy9asZj9HwqOBRz09B0n4UHqvYyzdgVDCQjg3Ujpmlwed6GKkGlve9A8AtPfJWQ12gX6vXqP4ydfeLfKIwu6bjHrSHi6S9x3/dXXANHYtRqNJET8B2udJz9Q/P3RmFc/gKuweWvkaHl8dACaBEaPrnJtZXavICra2iU2Zg2pxFGHsY+WceC1iNxPbSGiD9+ScTIV3ENfijY67gxNNR16XDq5/V7wjAMevXqxTXXXFPj3LwHDx4kPT2dHTt2NGjQGAgEeP7553n33Xc5fvy4swxAdHQ0v/vd74iOjnaWTigzM5M1a9aE7aGcmJhIly5dSExMdJbqhWmaXHbZZVx66aVhg+rP13/O9h3bz4i5kUVERBrd/uzqQ0t6s4K9cb+zvkz5Kpvs7OqvqT92thWppQt709tTaWjwarKY88hwxr0b7ir2MvOuTgyfBYPmbCX7cHFwKNc3hlRt1mYQMzJtivN2s37RZIZ6MhjTJ4Xhi8t/102g16MLyS4rJm/zJ8x+sjvZrwymfZ8XK907tbj+T7qfk3viiSd48cUXefHFFxXwyjknOAzzCe6hMLyzBtP7sflk+VIY9MJsPtmcTd7mydU/0FSucihbmF8xl2lSUg3zooYMeqP6cVUMGS1yGlKu7I2H+SwK24sc2DmHcSPGMb+it3gWWdV/iSO7pk47p6SWz0sga1+1gxARETkjGfGhQLGB2cv+ExrmuA3GZUBxSbAQ07xqT9yebap+XxpqF++YVrM8GHX2IfTvx84tAXd7zLS/Vt1WFSNx3XY3RpN4+GY51pLHCMy+Ayv0gcq6URI6vhLsNY8RmBfm9Vml95C/pHp93mMEFkwL2xP3u/khrjsfwmweD8c2Yi2fQODt+wlkVZ+GtCE01nWpkPcE4uLiGDZsGB07dgwbMtq2zfr16xk1ahS7d+9ukKA3EAgwadIkZsyYQW5ubth9mqbJb3/7Wy6//PKwx10Ty7L48ssv2bBhQ9jtXn311XTs2BG3uzYfFa0b7du3p2vXrsTFVf/4SX5+PqtWrSI3N9dZEhER+V7p0acvLJ1PhqPj4IZFi/B5+tL74qrLT8mVfelLBhnrEkhKSvr25ckjO8dTux4kImH1YuzTqfheHcPEbc4a5L+XzrCXZuNrHm6YyPVk/AdSn5zBhAGpJDUP9uDzfl0pEPb78H6WQWY+eBJS6D5gNJNXZDDhB/ms2hIc2tKXn0nGGi+4PSRc2pchj85m6ztD4LNQD6zaXP+12E9tPfLIIzzyyCPOxSJnqRR6/yh4b2ZuycJTfv80zyPj/80mY8V6sp2fg/B/u2D90tAHQO6dwrxHh9D30iQ8m1fV2DtyzqyZ5IeC3qxZ5XONptIjbCrcg74/Cn61ITO70r29lZn/bx6rVmRWhMQip+yasUy41MfUhyaSWa1HeD7zxw/jxTd9JLQBLu5NX4+PRYs2OJplMH8p9O3To+ryU1aL52XoXvUtWMiGKsfrZdH4dGZu1N0gIiJnFuO8ds5FDaNjJyifGbMY+Gp3MLj0dAoOWRxidrgo+EVuJhZgHQh9cqtZ92APYADa4GodCn0Pr62S89qbb8S/4ENsP5DQH/d9v6wh6G0dPJ7SjQSmjCKwfCHW9hbfHmOd+CfW4ZJgT97zW2BvWoi1aSHWJg9GpxswWrcInostmcFz0eQHGL7yNguxW1yHefEPMSKP1UPImxrqTbwf6+2hBJb8E+vLAxinMH1pXWqs61Ih7wkYhkHnzp351a9+xQUXXOAsQygYXbFiBUOHDq0YujlcQPpdWZZFQUEBv//975kyZQoHDx4MO0y0YRhcdtlljBo16pTm4gXIzc0lMzOTnJzqH/UwDIPevXvTrl27UwqOv6vo6Gi6dOlCu3bVbxDbtvnkk084eFBDNouIyPdb0t1jGZawiKE/Tidjvw98+WTOGszAZ7Po/szY0LyEpylpKGPvS2D+r9J4cakXnx98+zNI/3EnevRJx/EnSZFTkvLwPCZfkUl6ajJp4+ez4Wsv3q83MPOR3qQOmoPn3nlMCAUxVQUDmsx3ZpLh9QWD1qXpDHqk8tyFq5jQpx+9759JZmEwPMqclc7kbZDaJhmA/DeH0a/XQNKXevEBPm8G6c/MgQtDQ73W6vo/+X5Evq96PTYlOMftgqEkpqYxfMRQ+qV0Yuj/jGPoiEXkxwGkkBoaJTbzyR4kt01j6teQ2iWUzr45hsGT5jB1fBqdfj6/0tar8vxnDIktkklOjqb9Q6GA+JZ0hoX9oFMSw54eTQKQ9WwPkvsMZfiINHok9yP9f8Yw+NWt3867JnLKUhj77mS6b0mnU9s00t/dQJbXS9ZnMxnXJ5XB//Qw5J0J9HUT/MDTM93JerYvg2dlku8LPWcGDGVRwjDG3n3inuhO0QnJsCWDjK+9ePN9tXxeQq+HJtD964n0vWsmmfk+KPSSMX4Qaf8zlQ2FoTHZ4xJIJpOMpVl4vaE56EVERBpDUkfnkvrR7GYi0td/+xqaFpzvtmgt1kfArpexsgqAeIz+/8V936u4x/wXV4fmwflkP3s5GGwum4aVUwJme8yf/hv3va/ifmQuZhLg3421cppzz7BrPIGMtcGvUx7EdU31KS2hIDiaTWQqrmF/xTX4BdxjXsAMPzDtabNWhgLnlEdxP/Q6rsF/xf3IU5ip/TEvuxYjt9K5MNtg/vS/uO99Ade9C3Bfk4bR9WaMC2o4qPKIy9MJc8wC3Ledyty9h7FLAdpg3v5qcHjoYbMxWzfScM0NdV06KOQ9icjISH5y20+4+eabaxy2ORAIsG7dOkaOHMmf/vQnSktL6zR0tCyLdevW8eCDD/Laa6/VGPACxMbGMm3aNJKTT+0PSrZt88UXX7Bs2TLKysqcZVq3bk1qairx8fHOUr0yTZMePXrQ5dIumGb1y3X79u1s3ryZoqIiZ0lEROT7I24gMzbPY1jhRPq1jcaITqTT/avo8cIqMh4O1wvyVHgY+Fom8+7MZlzfZKIjDKLb9mNi4TDmbZ5CL/0RXL4LdypjV2cz7+FOrH92MD1SkklO6cHwV7Lo/cIqst4YSPjpPpMY9v9mMHD/RPolR2NERJM8xEv6a5WGn3T3ZcLSyfRePZxO8cF5CDvdv4jU369i5t3BnkxJo+Yz7wEfE/smE20YRCf3Y6J3CLNXTAgNCVuL678W+xH53mozjIWbZzDkB8C2RcycPoeM/eDpNpaFX337DBn4zGyGtAHw4d2/iFWbgx8CmTEgCchi/mNDGfNsHkNeG1vjcM2D/t9CxiZ58XqD0VPSgMmsemNIDf8PAa6ZQtaip+iVBN6Vc5g5fREbfJB0+xS2LhrGqUVrIg4/GMv6ffMYm7qeiXf1oH1yMu2vHM6LX/dm8uosZt/y7ZWZ8nAGq17ozar7O5EYHXrO5A9j3uYZDKw+qNkJJd03hck9FzE8JZnkQbPx1uZ5CXDxWDJWh55lidEY8cn0ezafYfMzmXJN+caHMeXPvVg0oj3JyYOZrdGdRUSkkZjtrnAuqh9mFERWelkl8M1CAm/eH8om92PNegwraz+4m2OkXIvRsnlwuOWVj+FfWT73wnICb03C+qYAPG0wOlyLkRAPvt1YH40isL3KXivYK8eHhh6Ox+j7F1ytnS0mEVizEawoaNcfs2saRszWUPBch7aPJ/DRwuBQ1c1/iNm1P0ZCFOSvxXqvhnPRIQ2zQ/tg2L1pEoH3Q4G105ppWFk5wffYsj1G607OFiewEGv5kmAA3fJazK5pmMnHsDJ3Oxs2iAa7Lh0Muy7TyJB9+/bx5JNP8tZbbzlLNGvWjMcff5xHH320QXuEfhe2bbNnzx5GjRpFRkZGjXPAGoZBQkIC3bp1Y9SoUfzkJz/B7XKDEaydCtu2K/Y7bdo0PvzwQ3bv3k1xcbGzaQWXy8W8efNIS0s75SGVA4EAs2bNYuzYsRw7dsxZ5p577uH3v/89l1xyibNU70pLSyvmJzty5IizzD333MPEiRNr7G0tIiLyfeLL95Lv85DQPKHuh1L25Qd7hXgSSEpQeCV1z5fjJZ+EiuEka6M26/hyvOT7T3Bf1ObarkWbk+5H5PusMB9voQ9PQhI13ELgyyefhKr1wny8hZCQlEBNq1Xmy/fi85xgH2HU67NTxO8jPycf4pJIOFFoG2rnO8Fz5ruozfOSys+yWt5zIiIijaFs4g+hpNC5uBGlYnRtj+HbjbW9pglGgGY/xGzbHI5tCgaidaKW+64DRkp/jCZR2DkLsQ84q+VCx+PPwf5ybT0M0+zUBqNzVwwaan9hRMUR8VQNQXY9a/CQNzExkbFjx/Lwww+fcvBZF1ymC3eEO2yv0BOxLIuvvvqK+++/n08//RS/v9rEKhXcbjfnnXceKSkppKWlce8999K6TWtcpovywdOd7738x2BZFkVFRaxatYo5c+awdu1aDh48yPHjx2vsvUuox+vf//537rjjDqKjo53lk8rKyuLZZ59l5syZ1fbjcrl44YUXGDlyJLGxsVVqDcG2bf79738zfvx41q1b5yzTunVr3nnnHXr27HnKP1cRERERERERERERETl7BN7/A9bnc52LRRqFefkduG77k3Nxg2jwkNflctG0aVOaNm3qLNU7l8tFWloaz0x8hpiYmIrAtbYCgQC7du3ivvvuO2nQS2h/0dHRJCQk0Lx5c1JSUrjsssvo2LEjrVq1IioqikAgQH5+Prt372bz5s1s27YNr9dLXl4eBQUFtRr6OSIiglmzZnHbbbcRF3eij4WGZ9s2Cxcu5OGHH2bnzp3OMp06dWLy5MnceOONjRaifvPNNzz++OO89dZb1c67aZpMmjSJYcOGNcp1JSIiIiIiIiIiIiIiDcPeuxH/jKHOxSKNwj18NsYF3ZyLG0SDh7zlnD1ZG4LL5eKuu+5i2rRpxMbGntYxWJaF1+vlN7/5DQsWLKCkpMTZJCzTNDFNE7fbjcvlwuVyVdRs28bv9xMIBAgEAliWddJgt7KIiAg+++wzOnfuXGW7teXz+ZgxYwbjxo2r9n4Mw2DUqFE8/vjjjTocciAQ4OWXX2bSpElkZ2c7y/Tv359p06bRvn17Z0lERERERERERERERM4hgdmjsbYvcy4WaVBmx+txDZ3qXNxgGqdbZqU5Zxv69V2Zpkmr5FbMmjWLyZMn17rnrGVZ+P1+fD4fx48f59ixYxWvgoICiouLKS0tJRAInPJxlpWV8eCDD1JYWHjK69q2zfbt2/nPf/5TLeAFiIqKomPHjpx//vnOUoMyTZMrr7yyxhB39erV7N69u1ovXxERERERERERERERObeYfR5wLhJpcI19HTZayHtWMyAuLo5Ro0bx+eef07t370Ybxrjc6tWref/990855AXYtWsXq1atci4GoHv37nS9rCtRUVHOUoMyDINu3brRuXNnIiMjnWWOHz9ORkYGR48edZZEREREREREREREROQcYlzQDbPXz52LRRqM2evnjTZMc7nGTSbPci6Xiw4dOpCRkcEnn3xSEUDWdeBrGAZut5u4uDgiIiKc5Qq/+tWvyM7OPqWg9+jRo2zfvp3c3FxnCcMwuPrqq+nUuZOz1ChiY2Pp1q0bycnJzhIACxYsIC8v75Tev4iIiIiIiIiIiIiInH1cAx7HaNXZuVik3hmtOuMa8LhzcYOr2zQypDyUjIyMPONebrf7tObirYlhGERFRXHdddfx+eefs3LlSu69915atmxJXFwcUVFRmKZ5SvssP38ej4f4+HguvfRSnn32WTZu3MiIESNo0qSJcxUI9WZ98MEHKSsrc5bCKh+q+aOPPgr782revDkXX3wxiYmJzlUbiUHv3r3p2LEjUVFR1Y539+7dbNmyhdLSUueKIiIiIiIiIiIiIiJyjnHdPgGiajetpkidiIoLXndnAMOuh26PR48e5d///jcbN250lhqVYRh06dKF22+/vd6GH7ZtG8uyyM/PZ+vWrXzyySdkZGSwd+9eiouLK+bcrTxHsGEYFUGw2+0mMTGRzp07079/f6655houvPBCoqOjMU2T/Px8fvrTn7J06dKwYa5pmvzrX/9i4MCBuFwuZ7kK27bZlrmNd+e+S3FxcbUgum3btvz4xz/moosuqlZrLCUlJSxYsIBNmzYRCAScZfr06cN1111HTEyMsyQiIiIiIvL9U5xDYP51zqVyEkaT9pi3LHAuFhEREZEzkL1zFf43R4JtOUsidcswcd87DePi3s5Ko6iXkJdQgHimBIOVVQ5W61v5vvx+P8XFxRQUFHD06FEKCgooLCykrKwMwzDweDw0adKEpk2bEhcXd8IewLZtk5GRwejRo9mxY0fYoYlbtGjB559/Tps2baqtX4UNNmfmz6lGJznmhvz5ioiIiIiInPEU8p4WhbwiIiIiZxd75yr8bz8MJYXOkkjdiIrD/dOXzpiAl/oMeaX+BAIBnnjiCaZPn87Ro0edZQzD4P7772fKlCl4PB5nWURERERERL4vFPKeFoW8IiIiImcf+9AOAu+lYx/80lkS+U6MVp1x3T4B4/xLnKVGpZD3LJWfn8/PfvYzMjIywg7bHBMTw7x587jhhhswzXqZellEREREREREREREROSMElj8PNbqN5yLRU6L2evnuAY87lx8RlDIe5aybZsVK1YwfPhwdu3ahWVVHWveMAxSU1NZvHgxbdu21fDFIiIiIiIiIiIiIiLyvWDv3Yi1YjrW9mXOkkitmB2vx+zzAMYF3ZylM4brj3/84x+dC+XMZxgGbdu25fDhw2zYsIGSkhJnE44dO4bL5aJPnz643W5nWURERERERERERERE5JxjNE3CvCwN86KrwTCxc/dCoNTZTKSqqDjMbrfiSnsKs88wjKZJzhZnFPXkPcsdPXqMX/zi52zevDlsb94WLVrw+uuv07lz5yo1ERERERERERERERGR7wt75yqsPZ+Bdzv2kT3YBYehtAjsqtmKfA8YJkTGYMS3wDivHSR1xGx3BcbFvZ0tz2gKec9ytm2zceNGNm3aVC3kBXC5XHTs2JEf/vCHGrJZRERERERERERERERE5BygkPccUJsfoQJeERERERERERERERERkXODQl4RERERERERERERERERkbOI6VwgIiIiIiIiIiIiIiIiIiJnLoW8IiIiIiIiIiIiIiIiIiJnEYW8IiIiIiIiIiIiIiIiIiJnEYW8IiIiIiIiIiIiIiIiIiJnEYW8IiIiIiIiIiIiIiIiIiJnEYW8IiIiIiIiIiIiIiIiIiJnEYW8IiIiIiIiIiIiIiIiIiJnEcO2bdu58GxT+S0YhlHxvYEBRqWGteQ8JYZRfSPONuWcbSuOJcw2qIN6bZzsfDjPX02c7zlc29q0EREREREREREREREREZHTd06EvNnZ2Xz66afccsst+P1+Nm3ahG3bXHnlldVCRtu22b9/P0eOHKFTp05ERkZWqQMUFhaybt06srOzOf/887n88stp2rRplW35fD4WLVpEcXExhmEQERHBHXfcUaWNZVkcO3aMwsJC2rRpU7G8nG3b7Nixg6NHj4Y9VoB9+/YRHR1Ns2bNMM1T73htWRYHDhzgyJEjdO3atdo+bNtm7969fLr2Uyzb4uKLL6bLpV2IjKp6XrZv305mZiaFhYUYhkGXLl3oeElHojxRVbb1zTffsGzZMtxuNzfeeCNxcXFVtiMiIiIiIiIiIiIiIiIi382pp4ZnoH379vHhhx9y6NAh8vPz+cc//kFGRoazGQBlZWVs3bqVDz74gG3btkGYiLugoIDcI7k0a9aMPXv2sH//fgKBQJU2LpeLlJQUysrKiIuLo3379mED1Ly8PLKysqosL3f8+HF27drF7t27OX78uLMMwFdffYXX68WyLGepVo4fP87rr7/O22+/jd/vd5YxDIO9e/eybfs2WiW3Ys+ePXyx+QtnM5o2bUq7du3Yt28fHo8nGDq7HJePDf/4xz84//zzadq0KcuWLavWs1dEREREREREREREREREvptzIuQtLS2lRYsWfPzxx3zzzTf4/X7y8/OdzQDIzc3FsiyaNm3Ktm3bsOzq4WkgEMCyLWJiYjh27Bg+n8/ZBLfbzaWXXkqrVq2CvV+7dHE2wbZt/H5/2PUBduzYgdfrJS4ujnXr1oUNnIuLiyktLXUurrXS0lIOHz5M+/btOXToUNjQtaSkhNLSUqJjovH5fBQVFTmb0KJFCzp36kyTJk1ISUkhOTkZt9tdtZEBfr+fzV9sxjRNOqV2Crs/ERERERERERERERERETl950TIaxgGKSkpbN68md27d9O3b19nEwBsy2b37t1s2LCBmJgYjh8/TkFBQdgg8siRI2zatIljx44RGxuLy+WqUi8fotntdhMRERF22OcTsSyLgwcPsnXrVjIzM9myZUvYwPm78Pv9bNmyhXbt2tGkSRM++ugjZxMIHUtOTg7/+c9/OHToEKmpqc4muFwuIiK/fb8ulytsz+Wf/exnXH3N1RQWFDL/vflhz62IiIiIiIiIiIiIiIiInL5zJuSNjY3lggsu4P/+7//o2LFjxfLKin3FHD16FMMwaN68OcXFxWzcuLFKm3KtW7emT58+WJZFSUmJs1yFbdsnDTOd9dzcXGzbpmvXrrRu3ZpWrVqRk5NTpU25oqIi8vLyKCoqOqVhm30+H//7v//LJZdcgmEYbNmyJWyvYpfLRdu2bbn22mtp06ZNje+3Nu/znXfeITY2ls6Xdmbbtm0nbS8iIiIiIiIiIiIiIiIip8b1xz/+8Y/OhWeb0tJS4uPj6dixI5GRkaSmpmIYBh07dqwS9BYXF2OaJpdffjmdOnXC4/EQGRlJ69atq2wvEAgQGRlJmzZtOO+882jevDlxcXGYZvVMvLS0lKZNmxIXF1ctVCa0rYiICFq0aFFl+ZEjRygtLeW6667jkksuISIigtLSUpo3b16lXWlpKdu2bWPz5s1ERETQrFkzIiIiqrSpSSAQoLi4mAE3DeCCCy7g/PPPp1mzZng8nirt/H4/8fHxXHHFFURERGDbNuedd16VNoRC3hJfCa1btSa+SbyzDEBCQgJr1qxh586d3HzzzbRp0ybseRERERERERERERERERGR02PY50BXS7/fj2VZmKZJWVkZkZGRwTlmo6OrtLMsi0AggMvlqmhr23a1oZYrtwsEAhiGEXZ4YoCysjJM06w2nHO5QCCAbdvV5q/1+/0EAgGioqKwQ3P3AtUCXL/fT0lJCZZlERkZSWRkZNjjCMeyLHw+HzExMdi2TVlZGS6Xq9qxlh9LZGRkjcdBKOQtLS3F7XZX20a5QCDA8ePHsW2bmJiYsNsRERERERERERERERERkdN3ToS8IiIiIiIiIiIiIiIiIiLfF9XHHxYRERERERERERERERERkTOWQl4RERERERERERERERERkbOIQl4RERERERERERERERERkbOIQl4RERERERERERERERERkbOIQl4RERERERERERERERERkbOIQl4RERERERERERERERERkbOIQl4RERERERERERERERERkbOIQl4RERERERERERERERERkbOIQl4RERERERERERERERERkbOIQl4RERERERERERERERERkbOIQl4RERERERERERERERERkbPI/wdUz4Lt8h4UUwAAAABJRU5ErkJggg==;clipPath=inset(5.56% 0.67% 0% 0%);" vertex="1" parent="1">
          <mxGeometry x="-1.5" y="-7.129999999999972" width="1913" height="109.13087248322147" as="geometry" />
        </mxCell>
        <mxCell id="xLVCNm-1Cixip9Uiv8k9-3" value="" style="shape=image;verticalLabelPosition=bottom;labelBackgroundColor=default;verticalAlign=top;aspect=fixed;imageAspect=0;image=data:image/png,iVBORw0KGgoAAAANSUhEUgAAB3sAAAESCAYAAAD0cL/aAAAAAXNSR0IArs4c6QAAAARnQU1BAACxjwv8YQUAAAAJcEhZcwAADsMAAA7DAcdvqGQAAJ5kSURBVHhe7N19fJP1vf/xVxpSSgoS0IISkIoWJhENbEVHcRSn9Qad4NG6U/RRdAxmYWOcUTxWtq47gEfgdzq2goeOCT1Cd6xO8AjeVIUqFrFVqGIQKGARg0ChBEpDaZrm90fSkqa3yG31/Xw88oBcn+91kyt9XFeu63N9P1+Dz+fzISIiIiIiIiIiIiIiIiIiHUpY6AQREREREREREREREREREbn0KdkrIiIiIiIiIiIiIiIiItIBKdkrIiIiIiIiIiIiIiIiItIBKdkrIiIiIiIiIiIiIiIiItIBKdkrIiIiIiIiIiIiIiIiItIBKdkrIiIiIiIiIiIiIiIiItIBKdkrIiIiIiIiIiIiIiIiItIBKdkrIiIiIiIiIiIiIiIiItIBKdkrIiIiIiIiIiIiIiIiItIBKdkrIiIiIiIiIiIiIiIiItIBKdkrIiIiIiIiIiIiIiIiItIBKdkrIiIiIiIiIiIiIiIiItIBKdkrIiIiIiIiIiIiIiIiItIBKdkrIiIiIiIiIiIiIiIiItIBKdkrIiIiIiIiIiIiIiIiItIBKdkrIiIiIiIiIiIiIiIiItIBKdkrIiIiIiIiIiIiIiIiItIBKdkrIiIiIiIiIiIiIiIiItIBKdkrIiIiIiIiIiIiIiIiItIBKdkrIiIiIiIiIiIiIiIiItIBKdkrIiIiIiIiIiIiIiIiItIBKdkrIiIiIiIiIiIiIiIiItIBKdkrIiIiIiIiIiIiIiIiItIBKdkrIiIiIiIiIiIiIiIiItIBKdkrIiIiIiIiIiIiIiIiItIBKdkrIiIiIiIiIiIiIiIiItIBKdkrIiIiIiIiIiIiIiIiItIBKdkrIiIiIiIiIiIiIiIiItIBKdkrIiIiIiIiIiIiIiIiItIBKdkrIiIiIiIiIiIiIiIiItIBKdkrIiIiIiIiIiIiIiIiItIBGXw+ny90olwafD4fdXV11NXV4fV68Xq9+Hy+hheAwWDAYDAQFhaG0WhseBkMhtDFiYiIiIiIiIiIiIiIiMh3yCWX7K2treXo0aNUVVWFhi4qg8GA2Wzm8ssvJyzs/HWIrquro7q6mpMnT1JZWck333xDWVkZZWVlfPPNN1RUVFBVVYXH4yEsLIyIiAi6X9adqF5R9OvXj+joaK6++mp69uxJZGQkXbp0oVOnTh0q+VtRUUFlZWVDQjuYwWDAZDLRq1cvOnXqFBoWERERERERERERERER+d645JK9TqeTZ599ln/+85+hoYvKaDTys5/9jGeffRaz2XzOk6enTp3i2LFjOJ1ONm3axIYNGyguLubrr7/m1KlTzSY+m2M0GrFYLFx//fWMGDGCW2+9lR/84Af06tWLyMhIjEZj6CyXFK/Xy+9+9ztefvnlZj+zwWAgJiaG7CXZxAyMCQ2LiIiIiIiIiIiIiIiIfG9ccsneffv2kZaWxooVK0JDF5XRaOThhx9myZIlREZGnrNk76lTpygvL2fLli28/PLLvP766xw5cqTZROe3ER4ezo033sgDDzzA7bffzrXXXkv37t0v2aTv0aNH+eEPf8iXX34ZGmpw5ZVX8sf0P/LLSb88r72sReQcqnZSsrmM0JoNlujh2PqYQqaKiIg05jnooHBjMTsP1YDFStytCY3PHw3nmV7YRsRgCZ5ZRETOKdeeEgqLi3C6ILyXjbhRw4npqd/0IiIiHU4L9+sA6GUj7rr2XFl5cJYUUeaGXj+II6YnuHYV4jgEkf2GY++n3wgiF4KSve10rpO9dXV1HDp0iKKiInJyclizZg01NTWhzc6Z+h6xSUlJ3HvvvQwaNOicfI5z7aWXXuLRRx/l1KlToaEG4eHh3H333fzP//wPl112WWhYRC5F+1eTOiMPZ+h0wDx4Ehmz4rGGBkRERHDjeP4p5rxTHhrAEjuJjN/EE2UMPs/EMT13CrGhjUVE5Ox5neQ/k87ybe6QgIno+2cx6+EYzCGRs1X+1hzSX3NC7CQWJ9tDw2flfC5bRESkQ2jlfh0jppM7tT1XVk5WP5lK3j6Im57LlFgozkoicyNYH5rP/HG64ydyIahb5EVQXV3Nli1bePbZZ3nkkUd45ZVXzmuiF8Dn87Fz507+9Kc/kZKSwssvv4zT6cTr9YY2vWg8Hg8vvPACHo8nNNRITU0NO3fu5PPPPz9nPaBF5EKxM2nxYhYvnsvTD9sxA+5tK3h7W2g7ERERcK6Z7U/0Gi3Y7p9CxjMZzHwkjigjuIqzmfd/zd6WEBGRc85DSXYg0WuyEv/I08x95mkm3W/DjIeyV59lWXHr1/LfRo3bhavChauyYy1bRESkY7EzKTODmVOnMKX+dZeGUBTpSJTsvcCOHTvG66+/ztSpU/nrX/9KZWVlaJNWhYWF0alTJzp1MtGpUyeMRuMZ9c6tq6ujqKiI3/zmN2RmZrJt2zZqa2tDm10Ue/fuZfPmzdTV1YWGmigvLyc/P/+SSlaLSHtEEmmxYLFEY7t/PPf2A3BTFagXU5KTQsrUFOa8Xkz+vGkkJ6Wx9qA/5tq2mnkzJpKclETS4ymkLSmkPHBfxrM5m2lTU0iZvbbhacTS3NTAsuqnlLB8agopU9NZvc8/xb1jLZmzAstMnkhqRh4lrkDzgOD1Jk9OZd4qBy4dekREzj+vg7WrywCwT1zA0w/HEdM/Bvs9U1jwmzjMgPPdAvwtmuF1UfJiOqmTk0lKSiI5JY3M10sJ7o/W5nnAW05xTjrTHk86vYx1ZQSnBTwHC8melULyo03PT35uSl/PJK1+Oyankv5iic4lItKxVOSzaoMbiGJM+nwm3WMjur+N+IefJuMhK+CmcH3h6eOjp5zCJWmkPJ5EUlIyE2fMY/W2oAPswXzmTE0h5Zl8nHvXMm96MklJyUzLyMMROFCXvzWHOa8FfssXLyFl6hzyA9cGnr0FZNYfe5MnkpqxnOKQIhCNjs/JE0mdtxpHYBNaW7aIiMj3TySRvWOwj4gjrv4VVMK5tXty7dbqbwMnazP89wSzNwcmuQrInJpCytRsSgLXTuVvzSFlagopS4obXZNB0G+LqcspaZhYfy8waFo7rvFEOqIOlew1GAx06dIFi8VyUV5msxmDwXBGydVghw8f5h//+Ae//e1v+eijj9pMVIaFhREZGUnfvn258cYb+clPfsJdd93Fz372Mx54YBzjxo3j3nvv5fbbb2f48OHExMRwxRVXEB4e3uY2VlZW8uc//5k//elPFBcXX/SEr8/nY9WqVVRUVISGmuVyuSgsLKT8UNOSfiLSEXhwbS2gaD/QLY64IYGplf6n6798ZQnLS1wQAR4vuIsXMWN2HiX7PZh6WrDgouy9RUz7gz+5axo8EGuFC9c2B6XVAE62bHbiqnDhKHbgAtjjoKjChav6GmL6+UvVpGespHhvONE3xxNv68GhHauZ9+RyHIHDc8N6yyOJvjmW6IhDlLw0hxnZJfoRKCJyvu0tocQNGOMYPbJxYVDTsEn8ZfFiFs8e18IwAB5Ksmcw79VSnMZoYkfZ6VVVRvGKdGavCdzcb/M84KH4uafIfKsUV0878aNiiaaM4qVpzH4rcFNi32rSZyyiYG8VvYbEY4+qanR+AnCuSid9RTFlxmhiR8Vj63aI0lfnMSPHUb+xIiKXPM9WB6UA/UYTP6BxzHpvBosXL2bxE3GY8Jd7Xv2HaSx6rwwXFiw9TXj2l5A3ewaLNgd+RXvd/l61RwrJnpvHTk8kJqOH8h2rmfNfBf7f7y3Zv5b0WdkU7/Efe2P7h+PckU/mrEWUVAfa1B+f97igmwVLhAdnSR5zgn7ri4iISNvauifXLm3+NrBiiwFXhYuS7YHHeXdsobjChauiiJIdAB4cnzpwVbiIio7x/+YIVv/boqIq6J6dh6pG09pxjSfSQXWoMXu7dOnCLbfcwi233BIaOu/CwsIYMmQIY8eOpXPnzqHhNh05fITlOcuZP38+hw4darX8sMlkok+fPgwaNIhBgwYxcOBAYmJi6N+/Pz179qRLly4YjUZ8Ph81NTWcOHGCb775ht27d7Nr1y527tzJ9u3b+fLLL3G5XK0mlQ0GA7fddhsZGRn8+Mc/Jizs4uT/q6qquOuuu/jwww+bbG+nTp3wer1N9tnAgQOZN28eP/vZz9pMbovIRdbCGCCm3nE89u+TiO/t/4lWP6YH/cYyd3Yi0SaAMvKmpbG6HOyTlzJzlBm8Zaz8tzTWltePB+IiPyOF5TsgbkYuUwbkk56yHKfZjPvUUKYvn0LMO+mk5JQ2jDni2TCP5OdKYMgklj4VjxkPzpIiXD2GMrCvGZOxfsyRKMbMXsj4AQStN4bxWRmM6RnygURE5NwpXkRSZiH0S2T+s2NbSOoGNBmz14N770627PYQPcqO1Qh8lEnSwmLoP56Fz4zB0uZ5oP78YyEhfTETBgEVpRSWwcAfRBNlNjWctxrOT7gpmDeR7BIz8U8tZdIQD4ULklm0GWwTl/L0bWaodlKy2YVlyECiuzW5RSEicklyrkol9SVnu8bva/idHTWGuf81nmgjuN+bx8QlJaeP6Q3H7SgS0hcwYZAJdiwnJSMfV9D4682ut7qc0m07ORRpI26QBXCSNyOV1fsD1wLDTh97o+6dy8KkaP/x+ZmJLNtnYfSkxUywt7BsERGR75OG87EJc89IwhsCVsb+/mkSerfnnlzbY/a267fBtuVMnJ2PO3C9duj5iczZCGa3mx4PzWf+OBfLJ84h320lccF8xvZp9EmauSYEKGZRUiaFDdPavsYT6aguTmbvW+rSpQt33XUXc+bMueCv//iP/yAxMfFbJXorKytZmbuS//f//h8HDx5skrSsZzQaiY6OJjExkX//93/nz3/+M//v//0/pkyZQkJCAoMGDaJXr15069YNs9lMZGQkPXr0oF+/fsTGxvLzn/+cp59+moULF/LMM88wZcpURo0aRc+ePVtMhvp8PtatW0d6ejqfffZZi9t2Pvl8PkpKSigtLW2S6DUajdjtdszmxr05AA4cOMC7775LdXX9o7sicumLYUxg7I9JD8ViOVxI9oxpZNc/4R9gvSUukOgFqssoK/fPa78pcCwwRjf8v+xrJ2Bh+C3+sUQc28tgh4NSLIy81QZeBzv3Qun2UgDibvb/3DNdayPaCGzN5onJKaTNW0bhfgu9+pgxGYHqUnbuA3Cx/r/8pWRSps1jvQuglLLd/k0REZHzzFsTOqUdTJj7DiQ6yknh0myy56WRsqTYH6rzUNOe8wBWBv7ADLjIn51Myox0Ml9zgCUqcBOgjJ3b/Yt0vDjDf56YOoO87fhLN+9yAiaifxDtb7P0CSZOTWNeTiHObr2wKtErIh1Ry8+SN3Du8/fIMd9k9x9nA/+PAdjnZH+j1gOxDQocDwfZsDWKtSAiiujoXrBtNdlLMkmfkc7a+oV6AZyUlQGYGWr3H4PBTPxTueQs9id6RUREJJgHd0VgLPvAy+1t7z25trXrt8HgWEaagb0OHNVOHNvcMHAkI/uAs7QUzz6Hf6iHfnHEhiZ6262tazyRjqtDJXuD1ZdTvtCvM1VzqoZXX32VhQsXcuDAgdBwA7PZzJ133slTTz3FggULmDx5Mtdffz0mk6ld66+Ph4WF0aNHD37605/y9NNpzJ49m1/96lfYbDbCw08/mxOsPuE7e/Zs9u/ff8ETvnV1dbz00kscO3YsNERERAS//OUvuf7660NDnDhxgpKSEvbu3RsaEpFLVi8GBsb+iB83nZk/s4LXRcE7QeN7haquwT+kbyThEacnR0b4j2k1Nf45LUOGYgVcpTsp3l0KRhu2+2zE4GJnaTE7SwHs2AIlo+kzhowFUxh7cwy9jFWUlRSwesUcpk1dRLE7eL0Wrhlixx54DR8RT/yoeGJ61W+JiIicF1dHEw2w30FJ6EgfFcWsXJJN9pL8FsbsdbJ2VjKpz6xk7eZSnJ2jiR/mfyioQVvnAUzYJy3g6UcSsPePpKa8lOK38lg0K4W0VU6gCk81gBlrzOnzhP1m/3kitn8kBMqbLpw6lthBvQh3l1Hy3mpWPjONJ7KKG40fLCJyKbP2DyRNt25pWgZ5Vz7ZS7LJfrEEF1BV7X9IJzzCfxwEICIc/7sqAj/fvzXP5kU8MTWdRa+sp2SfB+uQkdgaVdypPz6HYwq6fhAREZGWxDE9N5fchleg52w778m1pX2/DWzY7AA7KdtaStl+sMbcQexgM+wso2RPGU7AcpO99apPrWrrGk+k4+qwyd6OoK6ujk2bNvHXv/6Vr776qsUkas+ePZk0aRJz585l4sSJ9O7du9XEblvqE7/h4eHccsstPDnzSWbNmsWoUaOa7SFL0Ji5f/7znzl58mRo+Lw6cuQIGzZsoKamca8Ng8HAVVddxe233869Y+5tUmK6rq6Offv28cEHH1BXV9coJiIdg9vt/8nIyfofj82wWLnGDLAzkLAFcOHY7h9Lw3pl4CdeHzv2nsCuAlZtdcEQG/aeNob2g9LCNeysAAbZsQd+nHrc5ZQ5YWhSBvMX55Cb8zQJPYHKQoocwesNx3bfJCZN9r/G3ZdAYtJjJPSv3xYRETkvescRdx1AKaueL6C8PrngdVGcu4S17xVQUB6OpfFcfvuLKdgL9Exg1uL5ZEybRGJs45Ztnge8HtxfO3FdGc/U2YtZmpPL4sf9fc7KNhXjxEqffgBurCNPnyceGZvAuIcfYdwwi/8J+YNlOBnKI7Pms/j5XHJmJWAB3BuL0Ki9ItJh3BRPvBlwF7DyxdLTD6t4ysj7+3IK3iugqDoSC2C1+n+fu7Y7To+9W7qTnQA9rVjPsuNMycZC3IDtsedYPHsmk5LvILpRUrf++OxiZ+CaAaBkaQqpGZms3dG+G9MiIiLfe+29J9eG9v42sA+xA252vppPCRbsN1mxDRkKbgdr3t0JmBneULUjhNmMP/NxiEP1DwvvCayjXpvXeCIdl5K959HBgwf5+/N/Z9u2bdTW1oaGAejVqxczfjeDP/zhD9x0002EhYWdVaI3lMFgoNtl3XjwwQeZ9fQs7r77brp27RraDALJ0+eee47XXnvtgiVPfT4f69evZ9++fU3WGRYWRkJCAlarlbvuvguLpemtvIMHD7JhwwaOHz8eGhKRS1IRS6YGSiJPTib9Lf9PvJhbhjd/sx4AG3eMDYyztSCVeUuyyfxDGit3Ad0SGDOy/m5RNHEjLOAto2wvxNxkx4QV+00W2FVKKRATe3o9VZuySV+wiPRZc8hbV0jh2wVsOQZgxf8btH69TvJmp7P89ULW5qTx1Iw0UlIyKVQFeRGR88zCmF8m+sdz2pzNtMcn+s8fv0whc6MbjNEkJsc3f/6ov9A/toX8twopXJfHnOcDZZwD2jwPGMvImzuHRQvSeOq5tRRuLCB/05f+xfez0gsLo++LwwwUZqWSuaqAglWZPDUjjWkpT7FqL0AVRX9LZ15WOk89k0fBxkLy39viv8HRz8q3rj4mInKhGW08Mtl/zCtbk87Ex/2/6SdOTGP1XqBbHJMf8ldQsIwaR1w3YNdK0v6QSfaSeaQuKMANxNw3xl+1oZ2sfQJHyq2ryFyyGke1vzIawJcb11CwsZC1z81jdaPa0KePz6X/SCN9YTbZ81LJXOfCucuDpb//+qG5ZYuIiEiw9t6Ta117fxuYbh6OHSjbUwbm4dgH4O/MgZPSXW4wDyd2UMjC61kGYosCKGXljFTmLUxn2oL1jTuXtHmNJ9JxKdl7nng8Hv75z3+ybt06Tpw4ERoGwGKxMHPmTKb9dlqzicxzxWAwYDQaGXnrSGbOnMntt99Oly5dQpsBUFVVxYIFC1otOX0u1dbW8uqrrzabrDWZTDz00EOYTCauib6GYcOGhTahurqa7du388UXX4SGROSSFDQGSKUHU7doYifOZdadrR8DrffOIuMhG5Y6JyXvFVC8y4WpTzzTZ0/AFhjrAyDaPjzwFJ+VoUP8y2w0zX56PZbbpvuX6XaweukiFq0opNxkJWHG0/5SNcHrrSwlf8UiVr5VhifKzvjZ04lTSTgRkfOv31jm/td04vuZwOP2nz+qwdQvnun/NZex/UJnCLAkMCkpBhPlFK5YxKKcYqz3JzQq99X2eSCGCbOnE9/HRPmGlSzKymb1Ng9R9vHMmhyLCTANm8Iz0+Kx4qT4pWyyXyoOLCODxP4AFuL/LYPEIRbc21aTnbWIlRvKMfVLYOZTY8+i/JiIyIVnjp3CX9ITsUeZoDownp/HRJQ9kYzMKcTWFxKLsDMlcPx07Sqm4L0SnHUWbA9l8GQbv/ub+FEi4weZoLKM4vfWULwHbD+fTHyUqeG4utY1hrE3N56t4fgc5qL0owIKSpwQZSdx1tTTv+ObWbaIiIg01t57cq1q72+DCDv2+mSu3YatybShrawzmsQZE7BZgGonJZvdDH3iEYY2atP2NZ5IR2XwtVRb+CLZt28faWlprFixIjREz549efLJJ0lNTT2nvV/PB4fDwW9+8xvee+89vN7QAW0gPDy84bN07dr1gn2e+tLSv/vd7/j444+b7XEcHh5OWloas2bNwmhs8eh5TuzYsYMHHniA7du3N+nZe8MNN7BhwwYsFgtut5u///3v/Nu//VuTbb7yyiv57W9/y+9+9zs6derUKCYi3zUe3K4qiLBgPmfJVv8ya8IjsZhb+ll3PtYrIiJnxOvBXenB1M2Mqb0/UevnsZhbuXBvx3mg2o2rGiJbWben0kWVsZVleNy4qmoIj7TQUhMRkQ7D48ZVBZGtHl+Djp9ttWuLx40bc6Pjp8ftwhPW9u/z9hyfQ5ctIiIioc7RvbFz9dvgbLXjGk+kI1HP3vOgpqaGV155hc8//7zZRK/BYODee+/lV7/61QVN9BIojXzLLbfw5JNPctVVVzW7bo/Hw//8z/+wb9++0NA55fP5WLNmDQcOHGiS6DUYDDz44INcdtllAERERHDrrbfSu3fvRu0IjPlbXFzMwYMHQ0Mi8p1jwmw5yx+VTfiX2eLNHzhP6xURkTNiNGG2nOGFeP08odMbacd5IMKMpY11m7q1sQyTGYtFiV4R+Y4wBY6LodND1R8/Q6efKVPTZKzJ3L7f5+05PrcWFhEREc7dvbFz9dvgbLXjGk+kI1Gy9zz48ssv2bBhA4cPHw4NAdCnTx9++9vf0qtXr2aTredbWFgYd911Fz//+c8bxroJ5vP52L9/P8uWLWuShD2XTp48ybvvvktlZWVoiPDwcO6//37Cwvx/omFhYVx11VX8+Mc/Dm2Kx+Nh165dbNmyhUuso7qIiIiIiIiIiIiIiIjIeaNk7znm9Xp58803+eKLL5pNlBqNRp544gmGDh16UUsOd+7cmcmTJ3P11Vc3JFSDnTp1ipdffpmjR49yvvKnH3/8MTt37mxSlhlg2LBhDIwZ2GjaZZddxs9+9jPCw8MbTQfYu3cvH3zwAadOnQoNiYiIiIiIiIiIiIiIiHwnNc3yyVlxuVx89NFHHDhwIDQEQHR0NOPGjWu2R+2FZDAYuOaaa3j88ceJiGhae6G+d+/69euBc5/traur47XXXqO8vLzZ3riPPPIIEV0ab1fnzp2x2+3079+/0XSA48ePs3XrVvbu3RsaEhEREREREREREREREflOUrL3HPv888/Zs2dPs71Vw8LCmDBhAv369Wu2N+2FFhYWxiOPPMIVV1zRbDnpqqoqXnjhhWY/y9mqqKiguLgYt9sdGqJr164kJCQ02aawsDB69erF6NGjm8Tq6uooLS3lo48+arZHtYiIiIiIiIiIiIiIiMh3zcXPOH6H1NbW8v7777N79+7QEATKEN99991ERkaGhi6aXr16cfvtt2M0Nh2JvLa2ls8/d3D06NHQ0Fnx+Xy8/fbblJWVNZtIvu2227j66qubJHQBLBYLd911F126dAkN8fXXX/PRRx81OwawiIiIiIiIiIiIiIiIyHeNkr3nkNvtZteuXS0mR4cPH86VV155SfTqrRcWFsbkyZObTZ76fD5OnKikZEtJs6WWv626ujreeecdDh8+HBrCYDAwfvx4TCZTaAiA8PBwBg4cyKBBg0JDVFdXs337dnbs2BEaEhEREREREREREREREfnOuXSyjgEGg4GIiAguu+yyJq+uXbsSHh4eOssl4/Dhw7jdbiIjI5tse/fu3UlMTMRisYTOdtHdeOONXHXVVU22+bLLLiMsLIz1BetDZzkrX3/9NV999RUmk6nJ+vr27cuIESOa7dVL4O+jV69e3H333U3m7datG06nk5KSEpVyFhERERERERERERERke88g+9cdtk8BzweDwcOHOD48eOhIYxhRi6/4vIWx5i92Kqrqzlw4ABVVVWhIQCsVmtDAvVS4vP52LFjB16vNzSEwWDgsm6X0bdf39DQt3by5EmcTienTp0KDWE0Grnuuuvo1KlTaKiB1+vlyJEjHDp0qMnfQVhYGJdffjlRUVFNYiIiIiIiIiIiIiIiIiLfJZdcspdA8rEll3oCr6Nue2vbzXnY9tbW1951nYtliIiIiIiIiIiIiIiIiHRUl2SyV0REREREREREREREREREWndp1RMWEREREREREREREREREZF2UbJXRERERERERERERERERKQDuqhlnH0+H16vF4/Hg8FgwOfzERYWRnh4eItjrtbV1eHxeKitrcVkMmEymVpsC1BTU0OnTp0ICwtrmLdz586hzSCwPR6PB6PRiNFoDA03xAFMJlPD9oeFhTXbvp631kv1qWrCwsLo3LkzYWEt59hra2vxer3+fYCBWm/Q+1Y+Z1tqajyEhRkwhhkxhLW+HJ/Px6lTp6itrSUiIoJOnTqFNmnE5/NRW1sLQKdOJlrazLq6Ompra6mrq8NgMNCpU6dW9xvAqVOnGtobDAbCwsLo1KlTk31Rvw11dXWYTCbCwsLwer3U1tZiNBqb/Qw+n8//92HshLGTseHvw2jsRKdOrW+XiIiIiIiIiIiIiIiIyMXWctbxAvD5fDgcDoYPH87dd9/N/fffz5w5c6irqwttCkDNqRreffddfvGLX3DXXXfx61//mk2bNjUkGkN5vV7S09P58ssv8fl8VFZW8qtf/YqTJ0+GNgXg2LFjZGVlUV5eHhoCwO128/zzzzNjxgwOHz7MgQMHWLt2LZ999llo0wYVFRVk/CmDsWPHctddd/G3v/2NEydOhDaDwP748ssveeyxx6ipqeF45XFWrVrFihUrQpuekbq6OtLT/8Bf/vIXDh85HBpuxOv18sorrzR8H7/+9a8pLy+ntWcCDh06RGZmJgsXLqQ2kAxvjsFgIC0tjTvuSODuu+/mD3/4A3v27MHr9YY2hUDiOy0tjdtuu427776bn//853z44YehzSDw3SxbtoxJkybxxRdfUFdXxxtvvMH48eN5+eWXm/2b8ng8zJkzh6LiImpqajh58iS/+93v+PLLPc22FxEREREREREREREREbmUXNRkL4DRaOT222/nnXfe4Y033uSPf/xjiz1fSz4tYdu2bcyYMYP33nuPRx55hOLiYrZv3x7atMGJEycaEpX1Cd+WEpc+n4+TJ0+2mOjz+XxERESwY8cOXn/9dWpra6mpqWkx2VxbW0vmf2Vyyy238Oqrr/LOO+/gdrs5duxYs9tgMBiwWq3Ex8ezYsUKHA4Hq1evZsKECaFNz4jb7SYyMpLVq1fz9ddfN7vuel999RUvv/wy+fn5vPHGGyQnJ7NixYoW5/H5fHz22Wd89tlnmM1mDh46GNqkkbq6OubOnUN+fj4JCQn8/e9/bzG5TiD5vGTJEt555x3++c9/cuuttzbp1UtgO3r06AHAtm3bqKmpweVyUVNT02LvYZPJxH333cc777yD0+nk5Zdf5oYbbuCqq65q8W9QRERERERERERERERE5FJx0TNaPp+P48ePs3v3bsrKvuT4seOhTSCQJPzmm2+IiIhgyJAhhIWFYbfbqaur4+uvvw5tft6YzWaio6MxGo188803LSZBAU6ePMnhI4e56qqrMJvNmEwmJk2axKZNm1rsXWw2m7n33nvJzc1lyZIl/Od//idhYWHNJjjb69133yVuRBwJCQm43W5qampCmzR48cUXmTlzJp06dSI8PJzhw4fz29/+tsX1ezweampqGD58OH369GHLli2t7hMCSe2wsDBuvfVW9u3bR0XF0VYT7F9//TW7d+9m7969LfYCJrDvOnfuzJEjRygtLSUsLIxrrrmmxW03GAz88Ic/pHPnzrz77ru8//77jBkzhsjIyNCmIiIiIiIiIiIiIiIiIpeci57sra2tZfv27bzwwgu89NJL7CzdGdqkkfqxfYOFvg8W3L6lhOKZuv766+nUqRPr169vc5l9+vQhIqJLw/vDhw+zcePGFhOuPp+PTp1M3HTTTRw7dqzZ8WnPRG1tLW+88QbfHPiG0aNH8/7777fak/bkyZONesLW1dVRVVXV4jbs3bsXp9PJtddey1dffcX27dtbTGSH8n/WTvh8Le/D2tpa/u///o8XXniB1atXU11dHdqkkauuuoquXbtSUFDAqVOn6N+/f2iTRgwGAxMmTCA3N5e77rqLqKioFj+riIiIiIiIiIiIiIiIyKXkoid7O3XqxLBhw0hNTWXKlCkMuWEIBpom28LCwrj88supra1l9+7dHD9+vKF88+WXXx7aHAKJvG7dulFeXk5lZSXffPMNXbt2DW12xrp06UJMTAydOnVi//79oeEGXbp0YeLEiZhMnTh69ChHjx7l/fffZ+TIkURERIQ2B6CmpoYPP9xIbW0tU6dOJSsrq93J0+Z88803hIeH8+KLL5KZmck///lPDh482GKS+u677+bNN9+koqKCyspKPv30U958881mE+p1dXXs3r2bVatW8fzzz/POO+9w+PBh9u7dG9q0EbfbjcvlYufOnVgsFrp3795igtVkMvHYY48xM3Umv/zlL+ncuXNok0aio6Pp1q0bX3zxBV27dvUvu5m/p3oGg4GoqCiuv/56bDYb4eHhoU1ERERERERERERERERELknGP/7xj38MnXih+Hw+jh07RlFREV27dsXpdHLy5EmiekU1O2bqZZddxt69e/nkk084efIkr732Gr169WL06NHNJk8NBgMGg4GNGzdSV1fHe++9R2xsLDfccEOz47h6PB727NmDzWZrtpRvbW0tBw4cwGg0MmLECEpLS9mzZw+xsbH07t07tDkGg4EjR46wYsUKqqqq2L17N4WFhTzyyCNYLJbQ5vh8Pg4fPsxzi58jMzMTi8XCnj17sFgs9OrVq8WEaEt8Ph/vvvsuI0aM4Ne//jX/+q//Ss+ePenZsydXXHFFs/ugd+/e/OMf/6C2tpYjR47w6quvkpCQ0GyPV4/Hw+HDh/nBD37AH/7wBx588EHq6uo4fvw41157bZP2AFu2bMHj8XDo0CH++c9/8i//8i8MHDiQTp06hTbF5/M1tD927BiHDh3CbDYTGRnZZNm1tbUcPnyYzp07YzKZOHr0KD/+8Y85deoU3bp149oBzW9Pvc2bNzN06FB69OjRajsRERERERERERERERGRS4XB11yXzQvo5MmTDT1Bw8LCiIyMpE+fPi0m3DweDwcPHuTIkSPs27cPg8HAj370oxaToT6fj/Lycr766it69+7NVVdd1WxiEcDr9VJRUUH37t2b7eFZV1dHZWUlvjof3S3dOX78OG63m+7du2M2m0ObQ2D9brebXbt2YTKZGDBgAJ07d25xW0+cOIHb7aZXr14Q1AvWarWGNm+XAwcO0LVr14YE6alTNbjdVXTr1q3Z/eDz+fB6vXz55ZccP36cQYMGNSS+Q7fZ4/Fw8uRJTCYTXbp0aUje19XVNZs09fl8HDhwgMrKSsLDw+nVqxdduvhLXIe2rW//zTffcPz4cQwGA0ajkd69e9O1a9cm7evLTdfV1WE0GqmpqSEyMhK3243RaKRbt25N5qnn8/k4ePAgPXr0aLPnsIiIiIiIiIiIiIiIiMil4qInewkZc7elhFxzGm+6gZZmPdPl+3y+FtvVL6s+Hvq+Jd+2Xej7c6G1zxesPe3a06Ze8Gdp73yhf57tmYez2C4RERERERERERERERGRjuKSSPaKiIiIiIiIiIiIiIiIiMiZaTowroiIiIiIiIiIiIiIiIiIXPIuyZ69LW1SfWneS7XcbkvbHexS3Hafz9dm2ePWYi1pz/64GL7NZxERERERERERERERERG51Fxyyd4TJ07w0UcfUVpaGhqic+fO2O127Hb7JZmwO3HiBB988AFlZWWhIQwGA7fccgvXX3894eHhoeGLyuv1smLFCk6ePBkawmQyMXjwYG655ZYz2ucnTlTx0Ueb2LVr1yWT9O3atStxcXFER0ef0WcRkXPBRenGMszD7Fgj2jNdRETEg7OkCPfVccT0DJpcXkphaQ0DY21EecvIf7EE60NjsZmD2jRoYRkiIvKd4NpTguN4FMPtVkz1E70enNuKKKsES/RwbH0aIqftWEnqm9FkTIvDf/rw4NrlwHGoisheNmzXWU4vL8Cz30FRmQu6RTN8sBWTMbSBi9KtDg5VW4geZmv1+sazr4SifVUhUyOJ7ojXRRWlFJaZGDosOrAvT/PsK6HoSMj30wzXrkLKOg/H3s/kn+dUNHHXWUKbnRXXrkLKTEOx9w/ayvJSCkvBNiKG02tzUbqxFNPgWKLP7SaIiIiInDeXXLJ33759PP3006xcuTI0RI8ePZg5cyapqamXZLLu8OHDTJ06lZdeeik0BMDkyZP505/+xBVXXBEauqgOHDjAkCFDqKioCA1hsViYM2cOkydPbvc+9/l8FBUV8fvf/55169ZdMsneHj16MH/+fP715/9KRJeOdvUk0tEVsygpD+uC+Yzt057pIiIiTlY/mYrzwVymxAYmlRcwb1Y2rrvmM3ecFVwFZM4qZGDa04xp9jzSzDJERKTj87ooyUknc305nj6JzH92LFYAdzGLZmRR1M1G3AAo3ViCaWzgnBGkLDeFRV2eZv44K3idrE1PI68yGvtgC65Pi3EOns5fpsY2JC+dq9JIXV1FzDAbkfsLcVQOZ+qCKcTWN9i3lrRZeVQNsGPrsp/CrSbGzZ3L2H5BKw3iXJVK6uqjWLoFdwawMvb3T5PQO2jSGSsjf0kRvR5OxH6hEpXVhcz7ZR7RsxeS2D844KFwQTJ5/eay8OHo4EATxVlJ5FnnM3+c1b9vnInkTj23J27XW+mkfDqanJnxDYlnx/MTmfNOD8Y+O5/E+u/q4FrSpjtIeH4m8bp1JCIiIh3EJTlmr8/no66ursnrUkkatuSyyy7DarXSpUuXJtteV1fHm2++icvluqQ+h8/n4+WXX+bEiRNNtreuro4uXboQHx/f7kQvQF1dHUVFRWzduhWv19tkmRfrVVFRwccff8zBQwdDN1lEOiBPtafV9yIi8h3jLmbRrGxct88lo/6mvSWe6VktJXpFROS7yvl/88g+No4FU+MaTS9ft4rCfo/x3LMzmTR5JvMzx2N6KZt8V3ArJyWfgv0m/7nE9U42KyMf47mFGUyfPJ2Mvz7N8JJlrNoTaL43j3mvmBi/YCEZ0yYx89nnmDpoC0teqq9I56HwxZV47p3LwvTpTJo5n4WPmMj721oarTZU7GQWZy0Oep1tohegnNL3iilzh04/jyLiGH1zOYWbQqrcVRdR+KmV0be2nui9UCxDhmLd6qDEWz/FSemOHsRcdxTHttPflGe7g7JBduxK9IqIiEgHckkmezsqk8nELTffQv/+jR5lbPD111+zefNmTp06FRq6aGpra1nxwgpqampCQ4SFhXHllVdy9dVXh4ZadfjwYbZt28aRI0dCQxeVz+dj48aN7Nmzh7q6utCwiFwS3JSumkPKo0kkJSWRlDKH1TtO36lwrkolZelqVs5IJvnxZJKeWk3Z3nzmpCT536fMoWB/0OLKi8mekexf1qPJpOY4uJD3PURE5BxxO1j+dBYO+3RmPRQdVAqymEVJqaxuOPa7ceSkkhw4j6Q8Vxxyo91N6YvpJD+azMTJ/vNG/r5GDURE5Fs4ePAghYWF5OXlMX/+fBYsWEBeXh4bN27k0KFDoc3PWq87Z7F4ejxRzd3VMkeeLidsjiSycRRcDrYcGY59gP+t5c4Mcp+KPz2PMZLIiBo81YH3h8op7zMUe1R9AzOxI4biLi6iDH/P1sLNMdxxx+new5ZRo7HvKqTw2z5rXl7AommB65ikZKbNy8fZkKRs6VxWzKKkTApxkjcjidRVTn9zbznFS1JJTvKfG5OfXI6j4aLIP0/emjSSk07PU5yVxKJ1xWTXb8Pj6axt5XwZOyqeqg2F/v0R4PmokJJr4onvQ9A2B67zHk9l+dZ2Xpm1dE3ndZA9MYWV9Ul5Ar2MH51G3t6gafX62LF334JjR+C9y8GW/dGMjh9I6acl1D86XLK1BOuNNn9Z55a+hzNdt4iIiMh51tzPYvmWDAYDw28e3uKYsB6Ph2XLlnHs2LHQ0EXh8/koKChgZ+nOZpOfXbp04b777qNLly6hoRb5fD42b97MJ598gsdz6fWy27FjB1u3buXEiROhIRG5AKoqXbhcwa8qgkeq8mzIIv1NC4/9NZfc3FwWJ1tYMzuLwvobLYCr2MnAP+WQm7uU6VeuIe0/HCQsyPW/H/QlK950BFqWkTd7Ca67FpCTm0vu8xnEbp/Hs2+1+ny9iIhcauqcrP6POay3TmLBE6dLajbH/V4WczZGMzVwHskYtJMPgm9O711D1tsWpi7JYemSHBY/bOHtt0/f4BURkTPj9Xp5++23WbJkCe+88w5ffPEFbrebqqoqvvjiC95++23++7//m3fffbfZ+w7flsnc/Nkg6rZxxO1YRuarJZRsLiBvQR5lo8YxOrik8Q4HpXYbtqBJAFS7ce11sPa5TPIt47hjcGC6Eahy4W5ItoKr/BBUuCgH/7/GXvQKXkdEDAP7lVEWyLc2q7qq8bVRZf3ZyE3xK6s4NDLDfx3zwlzijiwn+53AdUyL57JYpuROJw4riQty/SWqgbKXZ7Pk2B0syMklNzeHjB/tZN78/KCHoYopPjKehS+cngeg8O2dxGXk+OcZ5WLl88HzhBgcx/Dq9RRsq5/gofCjEmJuifMnTffms2xTr4bz89LJffhgYR71V24ta+WazmgjbkQN6wtOL8WfYE4godk+GNHYh4HD4f9SPJ+WUDrERpzNRvRWR2BbHDhKLIFe3618D2e8bhGRjunIkSMUFxezZs0acnJyWL58ebteOTk5rFmzhuLi4kuuQ5jId5WSvefYlVdehc1m47LLLgsNAfD++++zadOmZnvSXmgej4dFixa1mPiMjIwkMTGx2cR1S2pra9m6dSs7d+4MDV0STp48ycaNGznwzYHQkIicd07yF6aRNiv4tSLoAt9D4YclxDwwntjAjRLLzZN4ZEgJ+e8F3VYYMjwwNpaZPlf3APvIhvexI4bidgeeEN9TSIEpgfG3R/l7gJmiGXeXjdJNRS3fpBARkUvOlufTWeOxYiotCeqJ1BwXHxQ0Po9E3ZbI6J4hzU6Vs3O3Cw9gGTWF+Y/bg3oKi4hIex0+fJj//u//ZuPGjXTu3JnbbruN8ePHk5qaSmpqKuPHjyc+Pp7w8HA++OADsrOzL8ANXwvWflDyeh6rXltL/j4T0dGB64EAh8OBfYg9aIpf+XuZpM1fxKpNYBsRTWR9cvemsSR2y+fZZ/Io3luG4/VFzFnjbPzwUe8oGjr+BgtKEDexdUXja6Os9f7kMWZiJy8k46FoTHhwV4ZjsYDbHfSYbLvPZWUUbggn4V8TiPJfFBF9XwK2HYUUNVwUWYm7w4bF2GhGrMPjsVkATMTcFofV7W70oG4jRhsJt4XzwcbA1Z1rPetLYogbETgh9x/L3Mwp/vNztZuazj0Id1e1XXWpjWs6208TiNxYiMML4CL/3RLsP03wJ5ibMfDagTi3OXABjm0lxNxkx9Tbhq27A8ceYH8pDup7fbf+PZzpukVEOhKv18u6detYvHgxr7/+Op988gllZWXs3bu3Xa+ysjI++eQTXn/9dRYvXsz69evxels7KYrI2VKy9xzr3Dmce+65h+uuuy40BIDb7eYvf/nLRR+7t36s3sLCwmZ74Hbq1Im4uDgGDAjUNWqnsrIyPv30UyorK0NDdO7cmeHDh3P33Xdzzz33nNfXbbfdRr9+/UI3AYAPP/yQ3Xt2U1tbGxoSkfPKyrhZwWNSLWZx1mSGN8QP4ToCvXoGXx6biDSH3NhoryMuXAfXMmdqCimB17SXyrCEox5cIiIdScwjPPNsBpOHbCEzq6CVG8NVuN3NnEeC63f2T2TW1GgcWdNIfjSZlFnZFPvvrIuIyBmora0lNzeXw4cPc9111zF16lRuvfVWrrvuOsxmM2azmeuuu45Ro0YxZcoUBgwYwMGDB1m5cuV5vNnroXBxOuv7TGfpkrlkpM9naeYjmF5KZ3l96V7KKNncg4ExTVOjUXc+zeKsxSxdOp3o9+aQWd+T1mhl7J8W8lg/B3nzF5FXbmfmk/fSo6fldIJ3fznBo8mAh6oqC5bLG01sLHTM3qcSGpZX/lE2aSnJJCU/wYxZmbwd/Lz6GZ3LynFVOFn7zOlropQZeZT1DIczGWHMGB46pYnouHgiN/mTn66PCikdlnC6R7W7lNXzUpmYnETyv81gzj+20K4uEG1d0/WPY/TlBRRsBioKKfrSTtzNTb/beqab7MTsKKGkugyHw4ptsCXQ47eGkk+duLZuwRnU67v17+HM1i0i0lF4vV7+/ve/s2HDhnNSlaOuro7333+f559//pwsT0Sap2TvefDDH/6Qm266CXMLZYXqn2itrg6qS3oB+ep8fP311zz33HO4XM33bzObzUyZMoXw8LZ/0Nfz+XyUlJTw8ccfN3vgHjZsGL/73e+YM2fOBXnde++9REREhG4G+/fvZ/PmzZdMOW0RqReJ2QxV7uBUrIcqN5jNTUbaaltkJObeY3i6UXK58U0UERG59A0dFU+U0UzsE9NJ2J3N7DUt1cRs4TwS8rxQ1M2TmLskh9y/LWDK4DIyZ+c1GmNQRETa9u6773L06FGuvfZaxo8fT2SjJ2sa69atG48++ijXXXcdR48e5d133w1tco4corwcBg6OOd3L1RzLyCFuHNsC5479JZRgx97n9FyuXYWU7As6d5iiifuRldLSUv/7ilIKt1YxNDmD+VnzyUiOw1K2E+cPBhIN0CeaaKODncHjt1Y42FkRjTVoPe1WXciyrFLsM5aSm7OUxVlzSYxp3KT95zIzkWYrY54Kfej2aRJ6h7Y9S/3jGH15EYXbXBRtKsV+8/CG76HstSzWdB7LgqW55CxezPxpo+kRMnuz2rymsxI/KobCj4pxvleAc9QY4preBjrNYmNov52UbXTgqLZhC/QRsA0ZirO0lJLSUmJiAju7ze/hDNctItJBFBQU8M033wBgNBq55557mDZtGunp6Wf0mjZtGvfccw9Go790xP79+3nvvfdC1iYi54qSvedB165defjhh0//QAxRU1PDf//3f/P+++83mxQ9307VnOKZZ56hpKSk2d6tRqORUaNG8eMf//iMSji73W62b9/Ovn3BA6Od9tOf/pT4+HiGDh2K3W4/r6/hw4cTFxdH3759QzeD2tpaCtYXsN+5/6L2rhaRUBZGxtspeX0lpYFuW569q1i7NYa4+nqcZ2JQLCMr81n9Uf1DLW6Kn5tG6ouBmzYiItKxGG1MmDUWz4uLWN3sz00Lw2+JoeT1VZQF7tm7Nq5ifcXpFu4NmUycvZZyLxARxTXXRrU6BrCIiDS1b98+Nm3aREREBA888EDD9B07dvD888/zn//5n/znf/4nzz///OmEKTB27Fg6d+7Mhx9+2OJ9g7PTi6go2PJRMa5A52HP3jxWfWzGNsg/Fq1r6xaODrP7k7QBrk/ymJe1Ekf9ZYOrmNXvOLENDtzTMR+iMHM2y+qvK1zFZOfuJOG22MAMduJH17D2hcD5xeuiOHcVzhGjv2XyzwNeM5HdAqlSVzFFW09HWz+XmcAINQ2dp23EjjhK/qun94n7o0VMezKPc39VZCV+lJWi91ZSsiuO0SOCerl6PRAeSaQJwENZYREtPbrVSDuu6Sy3jcb+UT7LPzvKyBFNRmIOYcV+UziOtwooCx63eYgN+9ZVrNpuZeiQ+mvP1r8HznjdIiKXvq+//poPPvgAAjmCiRMnEhsbi8Vy5vflLBYLsbGxTJw4sSHh+/7777N/f+NaGCJybijZex4YDAZ+/OMfM3LkyBbH7t2/fz+zZs1i586dFzTh6PV6efbZZ3nppZeoCu3mENClSxeeeuopunTpEhpq1RdffMGmTZua7bHco0cPhgwZQo8e7Xp286yFhYVx4403csMNNzSbsP5k8yfs2Lnjkhg7WUROM4+aytODHcyenExKSjLJfyjGNvNJEkLHW2wPo40JsxJx5aSQPDmFlMcnkrV7KBPua/5BHBER6QD6JfLbByAvK68hoRvMcueTTI8uIO3xZFImJ5P26UgeGXE6bh6RSKJxLdMen0jK5GQmLnGRkHJvo5v+IiLSuo8++ggAu93eUNFs586d/O///i/79u3j1KlTnDp1in379pGbm9uQ8I2MjOSmm24C4OOPPw5a4rliIi4lg3srl5HyaBJJSUkk/6EQyyMZTBgM4KHk01KGDmmclIt+cBbTBziYl+KfJ+nXWRy6LYPptwVubEfEMXXmSMoWpwTiy3A9UL9MP1tyBhPC1zLt0SSSHk0h60gCTz4e28I4ugEbM/3La3ilsno/EBHP+CQPef+WTMrUFCamF2Ed4U9W0+a5zE7Cz2Dtk0kkZRVDYNsSK5eR8vhEUlKSmbi4jKGP3Mv5uCqyjIjDurGQnaPiiQ0aAzh67GMM3TqPiZNTSJn8BNld7NSnylvVnmu6iDjibnLgqEggPug7aUm0fThH9zkbj9scYcd+XTnlwb2+2/ge/G3ObN0iIpe6LVu2NPx/9OjRXHnllY3i7fXee+/x97//nS+++IIrr7ySUaNGNcRKSkoatRWRc8Pgu5CZxnbYt28faWlprFixIjREz549efLJJ0lNTW02gXcpqS9pPHnyZD7++ONmE7phYWH85Cc/YenSpQwYMOC8fyav18v8+fNZtGgR+/fvb7ZXcVhYGGlpafz+978/oxLOdXV1vPDCCzz11FMNZR6C3XvvvcyePZsbb7zxvH/OelVVVcyfP5//+q//ajKGsMFg4Le//S2pqalcddVVjWIicgnwuHFVQaTF3PoNknbyVLqoMkZiMZ+LpYmIyCWv2o2rztTycb/ajctjwlLfW0dERNotOzubb775hoceeojBg/0Zrueff559+/YxePBg4uPjIVAGctu2bfTr14/HH38cgM8//5x//vOf9O3bl1/84heNlntOeT243WBudJwvYdGj+dj+NpP4ZnvcenC7PJhauQbxVLqhW8txPG7cXjPmZpd/hjxuXNWtnKvO9FxW7cZVfe6usb4NT6ULT4SFlk7PrWntmq44K4k1AxaTcc+Z9zxrUxvfw3ldt4jIBfa///u/7NjhH+h+4sSJWK0hD7m0g8fjYe7cuQAN5/t9+/bx/PPPA3D99deTmJgYMpeInC317D1PDAYDNpuNlJQUrr766tAwBBKkGzZsYPz48Q0lnZtLCp+turo6Kisr+f3vf09WVlaLiV6DwcCNN97IE088cUaJXoCKigq++OILDh8+HBrCYDAwYsQI+vfvf8ESvQR6KA8ZMoT+/fuHhvD5fLz77rvs369SziKXJJMZyzm8CWHqZmn2poCIiHxHRZhbP+5HmFu8aSsiIq2rqPDXx+/XLzDgKTTcCxg9ejRRUVFERUUxevToRjGg4f5I/TLOG6MpJNELVEcR97vxrZRWNmFu4xrE1FqiF/91zDlJ9BK4Jgr9DMHO9FwWcW6vsb4NU7dvl+ilpWu68lIKX1/EimI7o+PPU7K1pe/hQqxbROQCC67Y2VqFzqqqKj7++GNWrVrFqlWr+PjjjxuqiJpMJgYNGgTAtddeC4FOfPVOnjzZ8H8ROXeU7D2PwsPDGXv/WO69994Wyzl7vV6Ki4uZPHkyGRkZ1NTUnNPkY11dHcXFxfzqV78iOzu7xUQvgZJKS5YsOeOerj6fj88++4yCggI8nqb19KxWK9dffz3dunULDZ1XYWFhDBs2jCE3DCEsrOmf+o4dO9i6dStud2BwUBERERERERFplcnkT3w1d53dnOCHvuvnae+851SEFbvdelGTnXJulZcW4tgXReK86cSfHrj4griY6xYRuZi2bt1KVlYWa9eu5bPPPuOzzz5j7dq1ZGVl8cUXXwDw85//nH//939vqPYR7FzmPkTktIvw6/r7pbulOzNmzGDEiBEt9patq6tj586d/PWvf+Xuu+/m5ZdfxuPx4KvzfauDn8/no66uji+//JK0tDR+8YtfsGrVKo4cOdLi8oxGIytWrGDYsGFn3Pu2rq6OPXv2NBzMQ8XHxzN48OCGgdgvJKvVypAbmx8r+NSpU7z77rscOXIkNCQiIiIiIiIizagfv+/AgQMN06644goA1q9fz+HDhzl48CDr1q0D4PLLL29oVz/s05k+ZC7SnKgRE5g0OZG43hc+hX8x1y0icrF89tlnvPLKK416ANerrq4mLy+PrVu3AtC5c+fQJiJyHnWoZK/P58Pj8XDy5MmL8qo5VdNir9iWGAwGrr76av785z/zox/9iE6dOoU2gcBnO3r0KBs2bODXv/41P/nJT5gzdw5f7f2K2trahsRvc8na+uler5fKykry8/N57LHHuPvuu1m8eDFffPEFJ1spjxAWFsayZctISEhocfta89VXX1FUVMSJEydCQxiNRoYOHfqt6vufCyaTiaFDhzJgwIDQEAQuRL/++usz/l5FREREREREvo+aS/aOHDkSgG3btrFo0SL++7//u+GB8J/85CcN7ernUbJXRESkYzl+/Dhr165teD9kyBD+5V/+hX/5l3/BZrM1TF+zZk2zeQIROb8MvuayhxfRvn37SEtLY8WKFaEhjEYj3bt3p3v37qGh885oNDJmzBjmzpmL2WyGM+v8itfrZffu3Tz22GMUFRVRW1sb2qQRo9FIly5dsFgsXHHFFVxzzTXceOONDBo0iD59+tC5c2e8Xi8ul4s9e/awdetWtm/fzoEDBzh69CiVlZXtKgltMplYtmwZ999/P127dg0Nt8nn87F27VqmT5/Orl27QsMMHjyYBQsWcOedd16cMk3AoUOHePLJJ1mxYkWT/R4WFsb8+fP5xS9+cVH+rkREREREREQ6EpfLRVZWFt26deOJJ55oqGK2c+dONmzYQHl5OQaDgaioKG699VZiYmIg0ONn8eLFuN1upk6disWicU5FREQuJcuXL2fv3r0ApKam+vMgAZ988glr1qwB4NZbb+W2225riAHk5+fz4YcfAjB27FhuuummhlhVVRULFiwAoH///kyYMKEhJiLnRodK9tY70zLD54LRaCQxMZElS5YQGRn5rbahrq6OAwcOMG3aNF577TVOnToV2qRZYWFhhIWF0alTJ4xGY6NyyD6fj9raWrxeL16vl7q6ujYTvMFMJhMff/wxNpvtW5VZrq6uZunSpcyYMaPJ5zEYDDzxxBM8+eSTXH311Y1iF5LX6+Uvf/kL8+fPbygZFez2229nyZIlLfb+FREREREREZHTNmzYwLp16/jBD37Aww8/HBpu1sqVK9m1axe33347cXFxoWERERG5yFpL9q5du5aPP/4YgF/84hf07du3IQawd+9eli9fDsDNN9/MXXfd1RBTslfk/Ls4XS3PUn3Z4gv9OlthYWH0uaoPy5YtY8GCBe3uSVtXV0dtbS3V1dVUVVVx/PjxhldlZaW/xHRNDV6v94y30+Px8Ktf/YoTJ06c8bw+n48dO3bw9ttvN0n0EqjLP2jQIHr37h0auqDCwsKIjY1tMZn74YcfsmfPnia9fkVERERERESkqbi4OHr16sX27dt56623QsNNvPHGG+zatYuoqChGjBgRGhYREZFLXHDVzjPNI4jI+dchk70dmgG6du3KE088wSeffMKIESMuWnnjeh9++CGvvvrqtzpI7969m40bN4ZOBmDo0KHcdONNF30wdoPBgN1ux2azNZSXClZVVcW6des4duxYaEhEREREREREQoSFhfEv//IvREREsGnTJvLz80ObNHjrrbcoKioiIiKChx566FtVShMREZGL68orr2z4/86dOxvFQqddddVVjWIicv5d3Czj95jRaCQmJoZ169bx7rvvNiQiz3Xi12Aw0KlTJ7p27YrJZAoNN0hJSeGbb745o4TvsWPH2LFjBxUVFaEhDAYDcXFxDLYNDg1dFJGRkdjt9hZPNK+99hpHjx49o88vIiIiIiIi8n3Vq1cvHnvsMbp06cKHH37YbA/fN954g02bNhEREcHjjz9OVFRUaBMRERHpAK6//vqGss4ffPAB77//PmVlZZSVlfHee+81dAjr2rUr119/fcjcInK+ndvM4jlQn5wMDw+/5F6dOnU6p0+gGgwGOnfuzKhRo/jkk0/44IMPePTRR+nVqxddu3alc+fOhIWFndE66/dfREQE3bp144YbbuCZZ56hpKSESZMmcdlll4XOAoHerb/61a/weDyhoWbVl3B+8803m/2+rrjiCq677jp69OgROutFYmDEiBEMGjSIzp07N9nePXv28Pnnn1NTUxM6o4iIiIiIiIg0o1evXkyYMIHOnTuzadOmRgnfN954o6FH7/lL9Hpw73VQuLGQws2luEJuaXj2lVC4y9V44ndQ65/Tg7OkkJK97tAArl2FlOwL2WnV5ZRuLqRwYyGO/UGxaiclG0sp9wY3dlO2uekyPPtKKNxaTot3mLwuyjYXUrixhNKK5lt59vu/15JdruaX4ynHsbGQwo0OnNVB0ytK/X8Poa8W94+IiLRHREQEY8aMaXi/fv16cnJyyMnJoaCgoGH6fffdR3gz1TVF5Pwy+C6xrozHjh3jrbfeoqSkJDR0URkMBoYMGcK4cePOW1lin89HXV0dLpeLbdu28e6777Ju3Tq++uorTp482TAmb/AYwgaDoSEh3KlTJ3r06IHNZuP2229n5MiRREdH06VLF8LCwnC5XDz88MOsX7++2aRuWFgYq1ev5p577sFoNIaGG/H5fGz/YjsvvfwSJ0+ebJKQ7tevH3fccQfXXnttk9jFcurUKV577TU+/fRTvN5GVycA3HrrrYwaNarRwPMiIiIiIiIi0rpvvvmGnJwcTp06xQ033IDP58PhcBAREcGECRPo3bt36Cxnz11K3tzZrN5vIeamaNjnoOxgOMN/s4Apsf7reueqVFKdieROjQ2dux3KyF9SRK+HE7FbQmOXltY/p5PVT6aSt9/OpCUziQ+65VGclUSedT7zx1kBcBcvYkZWEZG2OGI6O3FsLsVzy3QWPBGLGQfLJy7ClLaY8QMCC3Dlk56ynNKbp5M77fS6S55LIrv7XBYnRTdMa+AuZtGMLBxX2LFf7sKxuYzIh+cy9x7/NoCb4udmkFUcie3mPlR9Woxz8HT+MjWWhk3ft5a0WXl4bHHEUErhVhPj5s5lbD+gZDkpS4tOrw+oqXThvmUmuU/YG00XEZHGli9fzt69ewFITU1t9j65w+Fg7dq1nDx5stH0Ll26cM8993DDDTc0mk6go9mCBQsA6N+/PxMmTAhtIiJn6ZJL9hJIJF4qCcJgwQnW861+XbW1tZw8eZLKykqOHTtGZWUlJ06cwOPxYDAYiIiI4LLLLqN79+507dq11R7BPp+PdevWMWXKFHbu3NlsyeKoqCg++eQT+vbt22T+Rnzg49L8nlrUxjZfyO9XRERERERE5LvkwIED/OMf/+D48eMAdOvWjfHjx5+fRC9uCuZNZEXYJJ6ZHk9U4Hl1d/EifvOXQyQuzCChZ1tJ0LYUsygpD+uC+YztExq7tLT+OZ2sfnIeDgt8aX6Ev0w7nTRtnOx1sHxiJkd/+Rem3xxo4S4m8zdL6PFvS5kwOLQ9ULyIpNcOEbP/GhKXTsAGQBkrp87Gk+KfJ1RZbgqz3VNYOtHfmj0rmZbu4rEXpmAH2JvHtP9w8shfphNrBrwOlqdkUjN1KZOGALhY+4cZ7Bxzejtdr6eTUhzH4vQEmuTlvQ6yJ2cSHvgMIiLSspycHMrKyqCVZC+B5O0XX3zBV199hcFgoF+/flx//fVERkaGNoWQZG90dDTJycmhTUTkLF1yZZy5hJNtBoPhgm1b/bpMJhOXXXYZVquVwYMHc/PNN/PTn/6Uu+66izvvvJNRo0YxdOhQBgwYQK9evTCbzRiNxma302AwEB8fz3333ddiOefDhw+TkZHBqVOnQkONGS7d76lFbWzzhfx+RURERERERL5LrrzySlJSUhg5ciQ/+clPmDJlynlK9AIV61lfYuORlNOJXgBz7CSmP2jF/VVQyWLvl6zNSCYpKYmk5GlkFwfFygtYNC0QS0pm2rx8nF4Cid5MCnGSNyOJ1FXOxu0fn0jyo8mk5jhwA1QXMC8pnfz6SsH7V5OalMSi4voVOVg+MYWVe/zv3DtWMyclyb/eR1OYs6rUv5yANuNbl5P6eCCesohif369FeVYRjzC0K1LWLa5aaU3Pw9Vp8LpYQm6sW+OZfrS00lS+xA7zs8c1H9Mx9YtWIeOZmBEESWBz8b+EkqODcU2qH4hjVmGj2fqnQNPT+hjxeqloVRzWWEBVSMS/IleAKON+FHhFHwQqAB4sJDC/SNJqE9IA5Z7Msid1UyiF3C9lUdBv0TGKtErItKmnj17Nvzf5Wq5/H1kZCQ/+tGPeOCBBxg3bhw/+tGPWkz0Ahw9erTh/8HrEJFz55JM9sr5YzQaefrpp7nlllswmUyhYXw+H//4xz8oKCigrq4uNCwiIiIiIiIi0qzOnTvz05/+lNGjR5+3IbAA2F1GaT8bMU06HJmw3T+JsfagwNYyTL9aSm5uLouTrRQsycMB/nLBr6zi0MgMcnJzyX1hLnFHlpP9jguIZUrudOKwkrggN9CT1UNhTjZlI+eS+/xScp6fRWzpaj44CETYsQ8qpeRTf8rStXULVT0tOEr9vaPYU0JRRBxxA4DqQrJmr8GSvJjc3Fxy//oYljfTydoQSHe2FXcXkDXvA6InB+IZNnZuCCSjW2OO5bFHB1K4ZCWOpiNbAXbGPmAhf24qmasKKS1vmhQ23WQnZoeDUi9AGSWbw7HfFI/N5sKxrRwCn905xIa9hdHBLNfFYe93+n6U87W1lAyz+3v1AuUVLnr16tUQB4iOscFXTsoBviqjbGAU7pxUkpP8Ce+UZ9ZS1twtLK+DvFecJDzUfCJYREQau/LKKxv+X1/O+Vyo7y0M0KfPJV4uQ6SDUrL3e6h79+6kpaURHR1NWFjTP4GTJ0/yu9/9jq+//rrZUs8iIiIiIiIiIh2CfTQJvf3JRcuo0cS6qwK9ZM3ETl5IxkPRmPDgrgzHYgG3uypkAY0d3VuKsxowxZA4+2kSegNYGB4bQ8nWEsBDyadOhj88lqhPS3ACzk9LqBlmJxrwfFRIyXWJjL85kH60xDIpyU7JuvW42hF3bVjfOB4VT+Jt7UtlmkdNYkKffDJz/OnuUNZxc1mcPgZr6VqenZFM0uOpZH/kT+ICYBnIwJ4OHDuAgw4c1cOxDwDbYDtl2xx4gNLSUmJustO0e0FT7uJFpL8TzfSUuEbto6Kigt4F1Hmoqf//1jxWmSaw8IVccnMWMta4itlLSxp6B9dTr14RkTNjs9kIDw8HYN26dRw8eDC0yRk7cOAA7733HgARERFcf/31oU1E5BxomumT7zyDwcDIkSN5+OGH6dq1a2gYn8/H7t27Wbx4cdvlnEVERERERERELiQj4G1I/bWfEfy3sP3KP8omLSWZpOQnmDErk7cPBAWbMBGXksG9datI+2USyZNTmRdUXtliH4q1xIEDBw7HUGwjBjKwagsOlwvHZ06GDvGPUXuoohwu79Gop6nJHAluN1XtiFe53U3jXVoundmYhYRfT8C6PruhpHQoy4B4EmfOZWlODoun2ynLeorl2+qj0diHQVFJGZ7tDsqG2LDV9/jd6qDE68BRYmXokLaTz+6ty3kqy8m9s6acLtkcsH9/457KHncVXG7hdH/f4Yx72IbFCJiiSPjXBHpsLAz02A5Qr14RkTNmNpv56U9/CkBtbS1/+9vfKC4ubrWkc0uOHj1KUVERS5cupba2FoCf/vSnLY4DLCJnR8ne76mwsDBmzEhl9OjRDBgwgOjo6EavPn36sH79enbv3h06q4iIiIiIiIjIxTPYjv1gIQVNEpZl5E1LYt57oX08m1FdyLKsUuwzlpKbs5TFWXNJjAltFMIcw9iZC8l5IYfn0sZAcHnlPnZiIx041jlw2GzYjdHYhzkp2VhIya44hg/zN4s0m8Fd1agXqsddBWYzkd82frL13siN9Exg0sORrF2ymkYpVVcZxRtLG8bjBROWIeMZd7Mbx47TLW1DhuIq3UnhthJifhDYYRYbQ/s42PlBKQ5sxLRVoXPfamYv2MnwtFmM7dc4FB0djbO0tNHn21m6E0vfaH/v38stWDpHYm6hTHQ95/8tV69eEZFvITY2FqvVCoDX6+X1119n4cKFZGRknNHrL3/5C2+88QZer3/sgL59+/KjH/0oZG0icq4o2fs9dtll3UhPT+f3v/99k9esWbNISUmhsrJSpZxF5Kx59pVQuLGw2VfJPg/goeyt5azeWv9c/MXkonRjib80Wwtcu+q3W0RELoiKUgo3llLe7BiDISpKKSxxNinl2BId00VEOqCIOMY/EMnaZ+dRsD9wDPeUU/hcJqurExgzsj1FhD3gNRPZLdDWVUzR1uC4CYxQ03DuKSVvxjSyN3sAE+a+MUQ36jIazfCbqyh8tYioQBlj2y0jcb6Vz86gMWwtt47GvnUtK3cErn08Zax6vYSYW4ZjaU88No6YrWtZtTfwuV2FrFp3Zj2urHdPYSx55H0UNDHCyfrnniX7nfKGc6hnTx6rPjJjG+y/6Q/AEBv2XW+zdndwD14r9pug6JX1OO3+3r4t2reWtFlrsE6dxfhBTXt3RY2IJ2brKpYFrg09e/NY+V4PEuKj/Q0GxJNweT4rXyrzb6ennPx/5HN0RNzp9VYXs3rtUfXqFRH5FgwGA4899hi33nprs0NAnqmwsDB+8pOfMGHChNCQiJxDBp8yed9r7fn6DQZD6CQRkTNS/tYc0l/zPw1eU+nCbbRgCVzXW+/L4Ok7TRRkplE46GmevifoRsI54aLkxTwO3TKJhP6hseYUsygpD+uC+Yxt4Yn04qwk8qzzmT/uXG+riIg0x/H8ROas92CftJSZt7ZxA794EUkvW5n/7Fjac5RufEwvI39JEb0eTsSuu8MiIpc4N6WrsshaXUJ5IDtpuW4sk/7t9DHcuSqVVGciuVNjA/MUsyipiOG5U4gFnGvSSHvRSWT3SGqMNu4dVkbhZb9t+J1f+lIqs1c58YyYTu7UWNxbl5O+IJ9DkRaorMJy82PMeiKeqPpeptuWM3G2g3vrryW8xSyakEnVxBxmjjp9/gpdTq/bZ5KRbKM+9dlmvHgRM/5SSFU3MzCUqQ9C5rbhQZ8zmJPVT6bifDCXKcHhfXmkPrkaHjp9XePesZrMhXk46nPHpijsSTOZeWfwGdVFfkYKy8vHMDdrPIEUbOCz5zNwcuPPGqo4K4nMjaFTrSQGXX/Vf36nx78NcY/PYsqooHF8y4vJfjarIdFvGTKemTPGEB1YrfOlVFK33cHidCV7RUTOxpEjR9izZw8HDhygoqKiXbkEAvmEyy+/nN69ezNgwAAuv/zy0CYico4p2SsiIhfUGSdKPR48YSZM9TdQQt+3qYWbGy1SsldE5JLidZA9OQ/rA71Y+bmNnJnx/jKOLTmrZG/b5wAREbn0eCrdYDafwTVCEI8bV7UJS30P3zZ5cLuqINKCub2zNKut5bQR93pwV3owWcytnxe/BY/bRVVNOJHnYdlnwlPphm6tbEO1G7fR3Pz+EREREfkeOft++CIiIudAcVYSqasCY0HtX03q1GxWr0glOTmZ5AlprN5bRv4zKSQlJ5M8IYU564JGmPKWU7wkleSkJJKSkkh+cjkONw2J3rx9UJiZRFJWsb+9u5S8jGSSmrQ/zfXRIlIeDcRnNI0Hc+9YzZwUf9uk5GnMe6vR6FciInI2thVSdPlQ7LfZsJesJ78iJL4vn3nTAsf05DTWltU0Cjc6vxA4xzwZMk4hBBK9mRTiJG9G0DzlBSyalkzS4xNJfjSZ1BwHrZwSRETkIjB1+5aJXgCT+QwSvfhLOFtaSMCekbaW00bcaMJ8npKxJrMFy3la9pkwtZboBYhQoldEREQEJXtFROSSVVGEc1AGObm5LJ0axZqnZuO4bQG5ubksnRrDl7lv4wg0LXt5NkuO3cGCnFxyc3PI+NFO5s3Px4WVsc/OJ7EfxE3PbShrVvb2Mgp7TWXxC7nk5i5lap8PyPzf+qUBOPmgNIaM53PJfWExU6M/YM78fJodCau6kKzZhVinLiY3N5fchY8Q+Uo6y7eFNhQRkTPnofCtAnrcEos1Io64YaUUbQo6GnvLWLlgOa6R/vNF7nOPUf5x4MGeMxbLlNzpxGElcUFuoKevh8KcbMpGziX3+aXkPD+L2NLVfHAwdF4RERERERERkYtDyV4REblEDWV4rH9UKnO/a+jBUEbeHHh/80iGuqsCPavKKNwQTsK/JhBlAjARfV8Cth2FFDWbnYXo++ey8IlYLEbwVNZg6haO2x3cT8vC6AcDyzNaiJ34CPYWluf5qJCSHyUyYXBgNChLLGNGhfPBpuDksYiIfCvVRRR+GkP8KCtgYvjNdkrfyqesPr6jgPVVCYx/KNrf88ccw/h77I0WcS4c3VuKsxowxZA4+2kSeoe2EBERERERERG5OJTsFRGRDq4cV4WTtc+kkDI18JqRR1nPcDgV2tbPvWM182b4y3FOe2oOK7c2LvkJkURGBL2NiCQSN43ywQGHKsph85LT656awryNEG70hDYVEZEz5PmokBKTG8dL2WQvyWbZp1VYygsp2htoUFWF+3ILgcdtADCZI4PenS0TcSkZ3Fu3irRfJpE8OZV5q0pVxllERERERERELhlK9oqISAdnJtJsZcxTi1mcFfxqqedVGWsWr8F0/wKWvpDD4qz5/PYnPULaVFFVHfS2uooqzJj9HYsbiTSbYdjkkHUvZnHyue9ZJiLy/eJifUEJ1hFjiBtiwzbEhm1YAgn2KgoKA317IyMxV1UR/HiNx10V9K4Z1VW00aIxcwxjZy4k54UcnksbA2+mk7VBD/SIiIiIiIiIyKVByV4REengbMSOOEr+q8W4vP4p7o8WMe3JPEoBCMcUBjV1p+fweCE8MtJf8tNTRmGR83QQ/AmG1woDy/NQ9upaSgbFMTy461iAJTaOmM2ryNsbuPHvdbI6I4XMDer3JSJyVioKKdwRwx0PxhM3Iq7hNfbu4dSsy8fhBQbFMtKznlUbA3X2PWWser2k0WKioqJwFhXj9AJeF8VvFTY/BjsAJjBCTeB8AqXkzZhG9mYPYMLcN4boZs4FIiIiIiIiIiIXi5K9IiLS4dmSM0isXEbK4xNJSUlm4uIyhj5yLzEARBF3TyylWUkkPbkaJ9GMSx6KI3MiE6emMHFqNpHDYkOWGMcjI0pI++VEUh5PJu29PkxKSWhUJrRBzwSenDGQ4j8kk5ySwsTHU8kPH0viiGa6AYuISLs53yugtLkHbYbEMZIiCrcBRhsTZo2jfEkKyZNTSJ6cTeQDY7EGNY++bxIJnlWkPppE0uNzcPQf3ijemJ2En8HaJ5NIyioGYrg3eSilC/3H+OQJaRT2m8RjI0yhM4qIiIiIiIiIXBQGn8/nC534fRL88Q0GQ8N7AwYwBDVsp9DdaTA0XUhom3qhbRu2pZllcA7i7dHW/gjdfy0J/czNtW1PGxGRVlW7cVVDpMXs77XbGq8Hd6UHU2ttPW5c1SYs3VpsEcSD21UFERbMweP9iojIBeDB7fJg6mbGZAyNnQuBY3ykBXN7TgkiIiIiIiIiIhfI9z7Z+80331BUVMR9991HbW0tn376KT6fj9jY2CbJRp/Px9dff82RI0cYPHgw4eHhjeIAJ06coLi4mG+++YbevXvzwx/+kO7duzdaVnV1Na+//jonT57EYDBgMpl48MEHG7Wpq6vj+PHjnDhxgr59+zZMr+fz+di5cyfHjh1rdlsB9u3bR5cuXejZsydhYWfeibuurg6n08mRI0e46aabmqzD5/Px1VdfUfRREXW+Oq677jqG3DCE8M6N98uOHTv44osvOHHiBAaDgSFDhjBo4CA6R3RutKxDhw5RUFBAp06duPPOO+natWuj5YiIiIiIiIiIiIiIiIjIaWeeAfyO2bdvH2vWrOHgwYO4XC5ycnJYt25daDMAPB4P27Zt4//+7//Yvn07NJMmr6yspOJIBT179mTv3r18/fXXeL0Ng34BYDQaueaaa/B4PHTt2pUBAwY0m0g9evQoX375ZaPp9aqqqti9ezd79uyhqqoqNAxAaWkpBw4coK4uaKDKM1BVVcXzzz/Piy++SG1tbWgYg8HAV199xfYd2+lzVR/27t3LZ1s/C21G9+7d6d+/P/v27SMiIsKffDaG/On5ICcnh969e9O9e3cKCgqa9PQVERERERERERERERERkdO+98nempoaoqKiyM/P59ChQ9TW1uJyuUKbAVBRUUFdXR3du3dn+/bt1PmaJlG9Xi91vjrMZjPHjx+nuro6tAmdOnXihhtuoE+fPv7esEOGhDbB5/NRW1vb7PwAO3fu5MCBA3Tt2pXi4uJmE88nT56kpqYmdHK71dTUUF5ezoABAzh48GCzyddTp05RU1NDF3MXqqurcbvdoU2IiorCNtjGZZddxjXXXMNVV11Fp06dGjcyQG1tLVs/20pYWBiDrx/c7PpERERERERERERERERExO97n+w1GAxcc801bN26lT179nDbbbeFNgHAV+djz549bNmyBbPZTFVVFZWVlc0mJI8cOcKnn37K8ePHiYyMxGhsPHBYfenmTp06YTKZmi0H3Zq6ujr279/Ptm3b+OKLL/j888+bTTyfjdraWj7//HP69+/PZZddxptvvhnaBALbcvjwYd5++20OHjzI9ddfH9oEo9GIKfz05zUajc32ZP75z39O3Mg4TlSe4JVVrzS7b0VERERERERERERERETET8leg4HIyEiuvvpqCgsLGTRoUMP0YCerT3Ls2DEMBgNXXHEFJ0+epKSkpFGbelarlVtvvZW6ujpOnToVGm7E5/O1mdQMjVdUVODz+bjpppuwWq306dOHw4cPN2pTz+12c/ToUdxu9xmVc66uruZ///d/GThwIAaDgc8//7zZXsZGo5F+/frxk5/8hL59+7b4edvzOfPy8oiMjMR2g43t27e32V5ERERERERERERERETk+8z4xz/+8Y+hE79Pampq6NatG4MGDSI8PJzrr78eg8HAoEGDGiV8T548SVhYGD/84Q8ZPHgwERERhIeHY7VaGy3P6/USHh5O3759ufzyy7niiivo2rUrYWFN8+o1NTV0796drl27NkkuE1iWyWQiKiqq0fQjR45QU1PDqFGjGDhwICaTiZqaGq644opG7Wpqati+fTtbt27FZDLRs2dPTCZTozYt8Xq9nDx5krvvupurr76a3r1707NnTyIiIhq1q62tpVu3bvzoRz/CZDLh8/m4/PLLG7UhkOw9VX0Kax8r3S7rFhoGwGKxsGnTJnbt2sW9995L3759m90vIiIiIiIiIiIiIiIiIgIG3/e8+2RtbS11dXWEhYXh8XgIDw/3j0HbpUujdnV1dXi9XoxGY0Nbn8/XpARzcDuv14vBYGi2bDGAx+MhLCysSZnnel6vF5/P12R829raWrxeL507d8YXGNsXaJLIra2t5dSpU9TV1REeHk54eHiz29Gcuro6qqurMZvN+Hw+PB4PRqOxybbWb0t4eHiL20Eg2VtTU0OnTp2aLKOe1+ulqqoKn8+H2WxudjkiIiIiIiIiIiIiIiIi4ve9T/aKiIiIiIiIiIiIiIiIiHRETWsLi4iIiIiIiIiIiIiIiIjIJU89e0VEREREREREpE0nTpzg7bffZvfu3VRVVYWG2yUyMpJrr72WO+64g65du4aGRURERETkDCnZKyIiIiIiIiIibXr55ZdxOByhk78Vm83Ggw8+GDpZRERERETOkJK9IiIiIiIiIiLSptmzZ+P1ennggQcYMmRIaLhdtm7dyiuvvILRaGTWrFmhYREREREROUMas1dERERERERERNrk9XoBePXVV9m4cSNn0n/A5/OxceNGXn31VQhaloiIiIiInB0le0VEREREREREpN0MBgNvv/02f//736moqAgNN1FRUcHf//533n77bQwGQ2hYRERERETOgpK9IiIiIiIiIiLSbk888QRWqxWn08lzzz3Hhx9+2Gwv3/revM899xxOpxOr1coTTzwR2uzb8ZRTmJNO6tR0Vu8NDX4PVBSTl1OA8zvWQdqzr4TCXa7QySIiIiLSCiV7RURERERERESk3Xr27MkvfvEL7rjjDgDy8/Ob9PIN7s0LcMcdd/CLX/yCnj17NrQ5G6W5T7Fo+zUkTn6M2N6h0fPHc7CY1QvTSHk8iaSkJJIeTSZlViZrt13gBGX5Toq37qTcExro2A59vJJFb5aGThYRERGRVijZKyIiIiIiIiIiZ8RgMDBixAieeOIJ+vbti9PpZPHixRQWFlJYWMjixYtxOp307duXJ554ghEjRpzTEs6uSjfW4XcQOyQaa0Ro9PxwFy9iWkY+NSOmsPBvueTm5pL7Qg4LU4bjfH4aaaucobOcP4PGM3/BJOwX6LNf8jwePMG9nEPfXyyh2xH6XkREROQcMPiaq7MjIiJyXnhw793JFqcLInphGxKDxRTaRkREpDFPeSmO0kNUYSF6mK3xTf2KYvJeqyLukXisxqDpQTz7Sig6FU3cdZbQ0AXmwVlShPvqOGLOTcc2EZELKiMjA4D09PRG030+Hx9++CHr1q3D6/VnsoxGI7fddhs//vGPmyR5W1pO+xSzKCmTwob3cUzPnUKsu5S8+bNZvcPf1dXUL4GZ6ROwmQNzZSVRNHg6plezKCj3QEQM4zMyGNMvsJh9+cxbsJKScg+YohmfYqfglXB+++xYrAAV+aRPL2H0wpnEW4BqN67qGsIjI6HKg6nbUdbOmoPr0cVMGOxfpHvHajIX5uFwAaYo7EkzmXmnNbBCcG9dTnpmPs5qwBLH9Achc9twcqfGwv7VpM5wkpg7hdhA++KsJIpuzmVKLCHxYhYlFWGbbmJVVgHlHjANGs/cWWNOnxvLi8l+NouC/R7AhHXUVGZOjCXK6E9i/2YpTM6cQqwZPJsX8cSS0+/L31vE7OcL/b2Im3wON6WrMsl8xYHLC1hsJE6bzthBgR1fXsCi2cso9M9MlH08M3+X0LBdofsg8eYy8ioT/fsgdLuNJqy3zyQj2YaZwD6Ye4i4W0pZ9boTjzGaxNmTMOfOY/lWFxgt2B57mqdvs+J6PZ2Uz0eTMzOe+kvQshenkbYvkZwZcQ3TGrSyvwj9bo0WbA9MZ/q4mDPerma1ts/a+rsQERGR7yX17BURkQvDXUrerIlMzMgmv7iI/NxnmfZ4CouK3aEtvzXX5jyy3ykLnfwtuSh5MZv87+P4XyIilwpvOQWZKSTPeJa8DxwUvp5J2uMTmfNWUM+pdpSxvHRKQh6i+B+LyN8dOl1EpGOr7+WbkpJCnz59sFqtpKSknPPevH6xTMnNZfoIsD40n9xA0qvs7WUU9prK4hdyyc1dytQ+H5D5v45Gcxa+vZO4jBxyc3PIGOVi5fP5uAC8DpbPXo5rZAY5ubnkLp1E1WtrCe6nW/bmalz3JBJvAee6OaSkpJOdk8lTM57gNynLKDFaGZtk54PXC/EAVBeSNbsQ69TF/h7ACx8h8pV0lm8LLNBdQNa8D4ieHIhn2Fj/4ukU9pkrJL80joznc8nNyWB0xUqy36kvLV1G3uxMym4OfL6cDGLLMpn9sv/ayRw7hek3b2FJTgker4OVS7YwdPIkYs1AZTGrVh8i7k85/u2cHUd5Tjb5gUV7NmSR/qaFx/7q7+m8ONnCmvnLKPEAuCl+ZRWH6vfrC3OJO7L89HY1sw92bmi018mbvQTXXQv88z+fQez2eTz7VlDJ7IoinIP8y186NYo1T83GcdsCcnNzWTo1hi9z38YBWEbEEVOynvUNs5ZRuKGK+DubSfS2sL8y3yj3h6sLyZq9BktyYLv/+hiWN9PJ2hD0Y6Sd29VUG/tMREREpBlK9oqIyAXgpiArnXzLYyz820Iypk0nY8FSnvuNjS1/eZb800N7nZWqvcUUbA9cgJ+1Kso2F1B6KHS6iIhcKGUvzib7UDxzly5l7sxJzJy9lKXPJFC1IuhmucpYts7rwROcCA99LyJyDvXs2ZNf/vKXTJw48ZyNzdte0ffPZeETsViM4KmswdQtHLe78YOl1uHx2CwAJmJui8PqdlMFsKOYD0xjmPRQtD/xZ4om8T570JzlOLbC8NhoqC5kZY6JxKz5zJyWwcL0cf6evwD9orGWleEEPB8VUvKjRCYMDlSVsMQyZlQ4H2zyp/hcG9ZTcl0i428OxKPiSRx1NhUorAyPt2ExAqYY7hhpxe2u8of2FFJQlcD44M/3yzF43i5oSDjakqczsmQZmZnL+cA+lUnDAinQbrFMyswgsb8JPG5c4RYsuPHvWg+FH5YQ88B4Yus/5s2TeO65KdhNAGZiJy8k46FoTHhwV4ZjsdCwXc3ug9uC9sGeQgpMCYy/Paphu8fdZaN0U5E/SQ/AUIbH+nsRm/tdQw+GMvLmwPubRzLUXYUbwDKahGGlFG4MzLk1n/WMJmFIw4JOa25//SmHufdGQf13G7zdllgmJdkpWbf+zLeridb3mYiIiEhzlOwVEZHzr2I960tsPJIS31D2CsAcO4npD1pxfxW4zPWWU7wkleSkJJKSkkiekU1xUO62OCuJReuKyZ6WTFJSEkmPp7N2nz/mXJVK6ktO2JhJUtIiisFfUuzFdJIf9S8v6fFUlm8NuqRucX1OVj+ZSt4+KMxMIinLvzQREbmAvMWsfcNDwoREooO63Jj6JzJl0khqDgQqOexfTWrDcd9/rsh8aS1pyUkkPbm6Ua+seuXvLWJachLJk5NJSg45N4Sob5uUlERS8jTmBfUq9p97ilmbETgvJU8ju1HFCjeOnNSG81DKc8VBN4FDlbFy6sTTSWxvMYseTSK1YfxHF/kZScx7L5CpLS8me0ZgvUnJpC4pprxhDMBiFiXNY+WaOaRMSCY5eSKLissD25JMcnIyqSsc/p5nECjBOYeUwHYmT5tHfuD8ShvnXxGRS4V7x2rmzZhI8qPJTHtqDiu31oQ2acwYfvr/VVW4IyMb9/AMC4pTg6cuksgIoKKc8isHEhOoUkzPXvSqb2bpQa9qD1XAoYpy2LyElKkpDa95GyHc6D/6VrndcHkPgtO7pi6RQe/OUqeg/x9x4brc0mhdREQSGZxwNNoY+5CFks1mEv/VfnpfeMspXpJGyuNJJE+dQdpf3+b087CHcB2BXj0bfQpMQTuy/KNs0lKSSUp+ghmzMnn7wOlYm/vgiAvXwbXMCdqH014qwxJO0DmsvUzEjYqj9L0CnIDjoyIib40jOrQZLeyvoA91qKK86XabI6H+4YGz1No+ExEREWmOkr0iInL+7S6jtJ/t9A2RBiZs909irN0fKHt5NpllsWTk5PpLq91cRubsPIILM7dUes06bj7zH7LCiOkNpdzYm8+yTb2YGigptnRyHz5YmNfw9Hqz6/uvtZRjZeyz80nsB3HTc0+PFyUiIhfOQSdlXhu2QaEBsN46gUm3NXt7FoDij8sZvzCX3PpxFoNVF7JsaRlxs3PJWZJDTlosO9d8QLN1IdooXQngfGc9pl8tDZSutFKw5PR5xv1eFnM2RjechzIG7eSDFpOk0diHQVFJ4Ky3w8GW7haqSksD5UBLKNlhZ/jNphbLS9aX4/QrweGZ4C9n+mwCZZnTWG7+rb/9s2Pg9byGUpaeDVmkb7IyJbCdC5MiyZu9HEdD8rjl86+IyKWhjDWL12C6fwFLX8hhcdZ8fvuTHqGNWna5BcuRQ/4xZwM8LfWkNJoweYMSydVVpxN8+52UBZKEkWYzDJvM4qzFjV/J/h7DkWYzuKsaJS09J1tYJwAeqlp+Nql1kZGYqxqvi+oqqsyR/jFmAdzFLHsJEm73sHpFcUMS2LNxGZl77MxcnEvOksUsnp3IwIaFRGI2Q5U7JPVavx+rC1mWVYp9xlJyc5ayOGsuiTGnm7W5DyIjMfcew9Oh+/CpBPx9bM/QsHjijxRSvK+YgvesJNzRwm+J5vZX0N9Gs9vtrgKzmbNO17exz5o6i78LERER+c5QsldERC4R/jGTEh6t78FlIvqhSYzx5lNQ38uptdJrzek/lrmZU/wlxard1HTuQXjD0+vNrO+BDHJmj/l2Nw5EROQ884+lnr0k8HqxpMVko/WWOwLnipYcpazUiccLpkGJzG3ppnGrpSsDhowmobe/t49l1GhiG84zLj4oaFzaMuq2REa3UtXUFjucmk9LcAJlJUVY7xvP8N0OSrzAVgclg+z+ctXNlZcMKccJVobfHEh197uGaKzExdW/jyOuX+MSnLEPTGjYZ5abxzDa9AHFOxoWdmbnXxH5zjKb/anBvXv3hoba7csvv4SgZZ0rHi+E1/fO9ZRRWNRcbYcWDIgn4fICsnOKKXe5cO0tIOvFkqAGvbBc7mRnqQd6xxHfLZ/sNaW4XGUUr1hLCYc4VO7BtX0nRwfFYAUssXHEbF5F3t5AStDrZHVGCpkb/GcJS2wcMVvXsqo+7ipk1bqgM1vPKKKMWygKVIzw7F1LfvODvLZtUDyjjevJWxd4tMnrovC19dSMiMUGgWF3Mtl/+yQmJE8hft8SlnwUONnVAZ0jiQx0bHV9VMSW+uViYWS8nZLXV1IaaO7Zm0fqhEyKPQAe8JqJ7FY/czFFWxtmbnsfDIplZGU+qz+qn+am+LlppL5YerrNmTDaSLitiqKcfLZcF0dcwznZTenry1ldX+mjuf2VNZFpL/n/piy3jsa+dS0rd9R/6DJWvV5CzC3DG/cGbif3jrUsX+UI/H5ofZ+d078LERER+c5QsldERM4/IxD89HuzynFV9MDSuFYWkZFuqlq6mxxceq057lJWz0tlYnISyf82gzn/2MLprWhmfUYTpqAy0yIichEZTZioCepJE0nUIBu2ITYGUkrBXte36z0TEcfUWffCa2kkP5rMxBnzWF1/szZUq6Urm2GE02emKtzupqUtI1vb6MFDGbp/Cw5XOY6tkQwdMpzoa7fg2AGOrVuw3mjz30RurrxkaDnOdvOX4Cx5/nSJzJSp8ygknKCTZmNtnX9F5DvrmmuuAWD58uVkZGR8q9f//M//ADBgwICQpZ+NaMYlD8WROZGJU1OYODWbyGFnUp3Hytj0DEYfziN9Vhppfysj4cG4oLiJuB/bcRSsx4WFhNQnGb57GWmzl+EYMpO5ky0UZkxjzscDefLn/vQpPRN4csZAiv+QTHJKChMfTyU/fCyJIwJJ7p4JPPmbaApmJZOcMpHktBKuuTWoHkVEHOMfuQbHXyaSlJTEtFwz9mGnw2fEGM34GYl4Xp5G8uQUJj6ewkp3IhnJ/m0tf/1Zso+M5bcPWMFoJXHyaMqysihwg2nkeMbX5THtlymkpEwkfbOVkf1OL9o8aipPD3Ywe3IyKSnJJP+hGNvMycSagIh4xid5yPu3ZFKmpjAxvQjriKDP2Mw+GJkUtN+NNibMSsSVk0Ly5BRSHp9I1u6hTLiv1a6urYqOi6dqm4OBt40OOo86KXw1nzWbAw8ItLC/Zj4Q2HZzPFNn2nDMnUhySgrJj6dTPPhpnrzz26R6wblpFflvFvuHnmhrn53LvwsRERH5zjD4fD5f6EQREZFzqrqQeb/Mw5qxkPGN7umUkTctjbIHcpg5aifLJy7ClLY4qE0ZK6fOxpOylAmD/WMG5lnnM39c4GJ3/2pSF8JvA2U6natSSXUmNpRdLntxGrMPJLIgJQ6LKdB+hpPE3CnE4mhmfYHyXEYaxu11PpjLlDO5TyQiIudI/TliKTNHNe795Vg6kcyw6Sx93BZybG/mXNHM+aGBx03ZhixmL4PH/jaTuIiQ8IZ5JK+JZm5GItERBMbCzcO6YD5j+zS33GIWJRUxPHcKsbjIz0ihJD6HmaPqx/krY+XUNFzJLZ1bPBQuSKZo2CQ8rzhJzBqP5a100o4MJ25jAZFp/vWybTkTF5uYlTX+9FiDe1aSMtfDlKUTsIVsZ+h2+89xf4Zp8xnbx7+djrtymX5z8Lac1mSfhpx/ReT748SJE+Tn57N7927cjcoctF9kZCTXXXcdd9xxB5GtPgHzLXg9uCs9mCzmxuPvtofHg8dkOj1f8SKSXrYyv/5Y53WyelYaRUNmMvNhG5Z2PyTqwe2qgggL5pDzDDTe5kNNzivnnqfShcfUwra0wuN24QlrZT6PG1cVRDa37z1uXNUmLPW9VUO143vzVLqoMkZiMbfUop32ryb1D4eYsGQStnZ8h63vr8B3G2nhbDeribb2mYiIiEgQ9ewVEZHzLyKO8Q9EsvbZeRTsD5To8pRT+Fwmq6sTGDPSBNiIv83E+pcLKA/04nJtXMV6z0himxmvsTnhJlOjsZTweiC8vuSYh7LCIv/T0tDC+jKZOCMv0CYcUxjU1DXMICIiF1Q09z4Sx86lT7G82OUfF8/rwbluHpnv9WLcXYGeU2dqVx6p07Ip8QAmM9Ex0bQ4qmOrpSvbYmH4LTGUvL6KsvrqlBtXsb4itF0wE8Nj7TheXYVzmJ1owHJzHFEf5VOEHXufQLPmyks2Ksd5JgLbuTqvYTvZt5r0lEwKK0Oaisj3XteuXXnggQdITU0lPT39W71mzJjB2LFjz32iF39VCHMrCcOWlbFyRjIzniug9KCL8l0FLMotIvrW2NMPtRitjP1TBnFfZzPtl6nMW5LH2o2FFL6eR/a8VBZtCBm3toEJs6WlZOHZbPO3Y+rWyra0wmRuYz6TGUtLn8Nkbj1p2Y59YOpmOctEr5uyzQXkPb+GmtsS2pXopc39Ffhuz2azWtLWPhMREREJomSviIhcENZxs8i4C1Y9lUxSUhJJydNY+U0cM5+d0HChHf3wTBK9eUx7fCIpk5NJWeEmcdbpeFuiRowhdkcmSUmprN4P0WMfY+jWeUycnELK5CfI7mIn+Bn5Ztf3b4mBGzpRxN0TS2lWEklPrg5KEouIyIVijp3CM1NtOJ5LITkpiaRHk0l7Fe6dNYsx9YnPM3XdvUwYVkrm4/5yk0mzCome+FiTXr3QdunKtljufJLp0QWkPZ5MyuRk0j4dySMjQls1ZrrJjrW8nIFDAmlbi42hEeV4RsSd7sXbQnnJ+nKcZ8py55PM/EEx6Y8nkzJ1Islp+YTfn0hct9CWIiLfVdGMf2Yu43oWsew/0khfXkTUQwvIuDekfoEpmjEzF5KzeCbjYq3+MsAWK3EPZzBpxNkn5iL7xxL/g2ZHkZez5XHiKN6Je9h0Mh5uOKOKiIiIfCeojLOIiFxwnko3mM0tj49b7cblOXclqzyVLjwRrTxxfY7XJyIi50G1GzfmVnrXnKHWyk2GaLN0ZVuq3bjqTGfZI6l5rZeXPEP1+6RbK+doEREREREREbmkKNkrIiIiIiIiIiIiIiIiItIBqYyziIiIiIiIiIiIiIiIiEgHpGSviIiIiIiIiIiIiIiIiEgHpGSviIiIiIiIiIiIiIiIiEgHpGSviIiIiIiIiIiIiIiIiEgHpGSviIiIiIiIiIiIiIiIiEgHpGSviIiIiIiIiIiIiIiIiEgHpGSviIiIiIiIiIiIiIiIiEgHpGSviIiIiIiIiIiIiIiIiEgHpGSviIiIiIiIiIiIiIiIiEgHpGSviIiIiIiIiIiIiIiIiEgHpGSviIiIiIiIiIiIiIiIiEgHpGSviIiIiIiIiIiIiIiIiEgHpGSviIiIiIiIiIiIiIiIiEgHpGSviIiIiIiIiIiIiIiIiEgHpGSviIiIiIiIiIiIiIiIiEgHpGSviIiIiIiIiIiIiIiIiEgHZPD5fL7QiSIiIiIiIiIiImcjJyeHgwcP0qdPH/r27cuIESMIDw8PbSYiIiIiImdByV4REREREREREWnTiRMnePvtt9m9ezdVVVWNYoMGDeLnP/95o2k5OTmUlZU1vO/WrRv3338/1157baN2IiIiIiLy7SnZKyIiIiIiIiIibXr55ZdxOByhkxv84he/oG/fvo2mVVdXc/ToUdavX09paSkA48eP57rrrmvUTkREREREvh0le0VEREREREREpE3z5s3j5MmTTJgwgf79+zdMLyoq4o033sBut3P//fc3midYfn4+H374IV27dmXq1Kl07tw5tImIiIiIiJyhsNAJIiIiIiIiIiIiLbnyyisbvb/pppswGo1s3bqVU6dONUzPyclhwYIFrFq1ihMnTpCQkMCAAQM4ceIEn376aaNliMj/b+/uw6OsDryPf5UgMUCARMxKkCAmSMAgpCUioQXfsFmlhdrFFt2Vrj4uWixlK+7W2rq02q7YFrGIPK61aoUKrYWKNhSCQk0iJDXQpBiU8BJg0KCJIUickInsH5mEZHgJUGmd7fdzXXPpnLf7nPse/vrlnFuSJOnUGPZKkiRJkiSpQ4mJiQBUV1e3K+/SpQsXX3wxTU1NR4S4Bw4coLS0lBUrVgBw2WWXAbBr16527SRJkiSdGsNeSZIkSZIkdagl7K2pqYmsIi0tDYANGza0lt18881MmTIFgO3btwOQlJQEwM6dO1vbSZIkSTp1hr2SJEmSJEnqUMt7eluCW4BQKMSKFSt4/vnnAYiLi2utI9wnJSWl9ejn7t27k5KSwjnnnNOu3SkJBthUWEBByRZqGyMr26pnR0kBBRW1kRU0Vm2ioLCAgrIAjU2RtUDtDjae0DWaNY+3hfZXaqS2YiMFhQVsrKjlaMN0OI9Ije82r71wE4FgRNWu5mu1/WyJzOdPcl2SJEn65Drj0KFDhyILJUmSJEmSpLaCwSCzZ8/mrLPO4q677iImJoZ169bx+9//nq5du3LNNdeQkZER2e20qC9+lLvmFdF1SDZ9PthIcdUQZsz5GiPaZ83NbdfP4etzi6kfNYNF00a0lgdevId7ftXIkFFpsK2ATfuzmfGT2xgWG+5X/Ch3zdtE78xh9KzdxMZtXZn0wx9wbZ/DYx/WyI7fzeb+X26ivimbGYu+xgiApgAv3XcPS/b3Z9jgntT+qZjA4Bk8Mm0ELVPtaB5H2PUS99y7hMYh2aSxhYKyzkz8wQ+YcH5z9aYnb+WB/LPo2eZeZN06nynDmv//5NYlSZKkTzrDXkmSJEmSJJ2QZ599lq1bt5KTk0NWVhb79+9n3rx5HDx4kHHjxrW+k/f02sGS6fcTmPwIMy5tTjQ3PXkrcz6awRO3DmnfNLiRR6cv5OBgKO406XDYG1zD7H99hSHzZnFtAkA9a2bfysrBc/nBdb2BHSycdj8H/u0Jbgvn1zsWTeeefV9l0e3h1LSt4ke5+be9ufefz+LxWQEmhcPe2t/fxx0ll/PEt8Y2h7tNm3j83x6l6z3zuXHAicwjUi0vffcu3rr28Nprf3cfdxRnM/++cfQEiudO5pVhT3P3mM6RnU9+XZIkSfrE8xhnSZIkSZIknZDs7GwA1q5dS0NDA927d2fChAkArF69mqqqKgA++ugjnnnmGR566CFWrVrF+++/326cv8i2AtYcGM24cNgJMGTs5Zy1dg0b2zWETYvm8daYrzGpX0QFaYybdhPZCS3f4+jftyeNjQfD33uSNXka1za/ihiA5ORkaDrGmcdDvspj908irXv74p7XzGJRS9AL0KkrXWMP0th69HJH84hQVUDBnvZr7/mPs1h0b3PQCwECe6Br96MFvZz8uiRJkvSJZ9grSZIkSZKkE3LBBRdw0UUXUV9fT0FBAQDp6elccsklNDU18fOf/5zXX3+d1157je3bt1NfX09hYSGPPPIITz31FKWlpXz00UeRw56c6lpqe/fm3LZlAwYypClAoDlrbrZtIY+vH81tN/RvUxgWm8ywUWnhgBSoL2bpy50ZkZkcLuhJ2qhhJLccpdwUYOnvNjLskmPsfo2LOxzoHk2wntrKTbz02BxW9pzI1YPD5R3OI8LOHewY2Jv6p2dy8+TJTJ48mTt++BI7Wm/puwT2xPHWojuYPHkykyffzMynN1Lb+h7gk1yXJEmSPvEMeyVJkiRJknTCrrnmGs4880zy8/PZvn07AOPHjycrK4uGhgZefPFF8vLyALjssstISUkBoLKykqVLl7JgwYJ2452SfziXIw85bqSxJdRs2sHCua8wfPoUhnSKaBapKcCy78/j3WvvZlLzVCPUU/zYfaw8fwbTPnOsHbPH9+7aOdzz0KMsXQdDRvWna2v42kaH8wgrW8LSzlOY+4tFLHp6LhM6LeX+JzbSvDe3P+Nu/yq3zZzLokWLWDR/Gv0LZzMnrzZylI9lXZIkSfrbM+yVJEmSJEnSCevVqxfjx4/n0KFDPPfcc7zzzjt06tSJnJwc/umf/omzzjoLgIsvvphx48YxZcoUpk2bxsiRIzn77LN59913I4c8eXsCBNp+Dx7gAL3pGT4OOfCbR3ll0DRubNlBeyxNAVb+8D5eTJ7GvROPtpu2nk1Pfot5geuYdfuI4+/ePY7e13yb+fPm88QTM+i/9oEjw9cO59FWFhNvGELPTkDn3oz7yjh6FRawCcI7d7MZkhQOb3uO4LbJw9iypoD2d/3jWZckSZL+9gx7JUmSJEmSdFKGDRvG2LFjOXjwIE8++SRvvvkmAIMHD2bq1KmMGTOGnJyc1vaJiYlcc801fPjhh21GOUX9+tN/11tsaX3vLbDlLd5KSKZ/LMBGlr0QoP7V2a1HHc/8VQAK5zD5P5a1CYmbd7Yuib2JHx4j8AwsvZ/ZW7K49zsTSO5oh/BR1FYUsHFXm/fhdu5P9qeT2bJlS5tWHc+jVWJPenbpStyx5hIMsLFwC0fbx9vWX7ouSZIkfXIY9kqSJEmSJOmkjRkzhquuuorGxkaee+45Xn75ZUKhEL169WLs2LHExR03tjx1SdmMvWgjS5/dRD1A4w6WLFpDryvH0vx23iF89afzmT//8GfWdcmQeRvz772W5n2z9RQ/dlfzztYZY+l9lMAz8OI93LMimWnfuZG0U1xK7etLmD1vIZta0tfaYpblBRgyOC1c0PE82hkwlnGJK1n4qx3NxzY3vsvKX67k/VHZDAFgBysfe5CF68MXrN3EkhWb6J89rPXY649jXZIkSfrkOOPQoUOHIgslSZIkSZKkE/Hmm2/y/PPP09jYSLdu3RgzZgzDhw+nU6cjk8tZs2YBcN9990VWnZz6TTz13dms3NMIdKb3qK9y7+3HDksDS2cyMzCJRdNGNBfsWcbMu5a0PwoaYNSMcJtiHp08h4LI+vMn8dCDE8KB8VHsWcbMuwJMWvQ1RgA0vUvxE7OZtzbQHM526kzadffyHzekNe/g7XAeR/FuMY8/OI81e5p3DPfMuJG777qW/uGTm+vfXMKDDy4L73zuTPI1M/j2TcOaj30+1XVJkiTpE8uwV5IkSZIkSX+R2tpaVq5cSXl5OQBdunQhIyODiy++mO7du9OtWzcCgQDPPPMMcXFxzJw5M3KIUxOsp75THHHhoPOTq5H62kY694zjY5tqB2tvrK+HLnF0PkYALkmSpP8bDHslSZIkSZL0sdi5cyeFhYVUVFTQ1NQUWQ3AxRdfzPXXXx9ZLEmSJOkUGPZKkiRJkiTpY9XQ0EB5eTk7d+7kvffeY+/evcTExJCamsrVV19N165dI7tIkiRJOgWGvZIkSZIkSZIkSZIUhc6MLJAkSZIkSZIkSZIkffIZ9kqSJEmSJEmSJElSFDLslSRJkiRJkiRJkqQoZNgrSZIkSZIkSZIkSVHIsFeSJEmSJEmSJEmSopBhryRJkiRJkiRJkiRFIcNeSZIkSZIkSZIkSYpChr2SJEmSJEmSJEmSFIUMeyVJkiRJkiRJkiQpChn2SpIkSZIkSZIkSVIUMuyVJEmSJEmSJEmSpChk2CtJkiRJkiRJkiRJUciwV5IkSZIkSZIkSZKikGGvJEmSJEmSJEmSJEUhw15JkiRJkiRJkiRJikKGvZIkSZIkSZIkSZIUhQx7JUmSJEmSJEmSJCkKGfZKkiRJkiRJkiRJUhQy7JUkSZIkSZIkSZKkKGTYK0mSJEmSJEmSJElRyLBXkiRJkiRJkiRJkqKQYa8kSZIkSZIkSZIkRSHDXkmSJEmSJEmSJEmKQoa9kiRJkiRJkiRJkhSFDHslSZIkSZIkSZIkKQoZ9kqSJEmSJEmSJElSFDLslSRJkiRJkiRJkqQoZNgrSZIkSZIkSZIkSVHIsFeSJEmSJEmSJEmSopBhryRJkiRJkiRJkiRFIcNeSZIkSZIkSZIkSYpChr2SJEmSJEmSJEmSFIUMeyVJkiRJkiRJkiQpChn2SpIkSZIkSZIkSVIUMuyVJEmSJEmSJEmSpChk2CtJkiRJkiRJkiRJUciwV5IkSZIkSZIkSZKikGGvJEmSJEmSJEmSJEUhw15JkiRJkiRJkiRJikKGvZIkSZIkSZIkSZIUhQx7JUmSJEmSJEmSJCkKGfZKkiRJkiRJkiRJUhQy7JUkSZIkSZIkSZKkKGTYK0mSJEmSJEmSJElRyLBXkiRJkiRJkiRJkqKQYa8kSZIkSZIkSZIkRSHDXkmSJEmSJEmSJEmKQoa9kiRJkiRJkiRJkhSFDHslSZIkSZIkSZIkKQoZ9kqSJEmSJEmSJElSFDLslSRJkiRJkiRJkqQoZNgrSZIkSZIkSZIkSVHIsFeSJEmSJEmSJEmSopBhryRJkiRJkiRJkiRFIcNeSZIkSZIkSZIkSYpChr2SJEmSJEmSJEmSFIUMeyVJkiRJkiRJkiQpChn2SpIkSZIkSZIkSVIUMuyVJEmSJEmSJEmSpChk2CtJkiRJkiRJkiRJUciwV5IkSZIkSZIkSZKikGGvJEmSJEmSJEmSJEUhw15JkiRJkiRJkiRJikKGvZIkSZIkSZIkSZIUhQx7JUmSJEmSJEmSJCkKGfZKkiRJkiRJkiRJUhQ6IxDYcyiyUJIkSZIkSZIkSZL0yebOXkmSJEmSJEmSJEmKQoa9kiRJkiRJkiRJkhSFDHslSZIkSZIkSZIkKQoZ9kqSJEmSJEmSJElSFDLslSRJkiRJkiRJkqQoZNgrSZIkSZIkSZIkSVHIsFeSJEmSJEmSJEmSopBhryRJkiRJkiRJkiRFIcNeSZIkSZIkSZIkSYpCZwQCew5FFp4Ou3btpKJiK4HAbgD69u3LhRemcv7550c2lSRJkiRJkiRJkiR14LSHvQcPHuSFF15g3brXAEhMPAeA6ur3AMjOHs348eOJiYlp10+SJEmSJEmSJEmSdGynNewNhUI8/PAc3nvvPa644kpGjhxJfHw8AHV1dRQUFLBmzSuce+65TJ/+jeMHvsFK1i55nrWV+yF+ENfddD2ZiW3ahwIULVrMisr9nJ0wlM99ZSIZCYera0qXsnBFKe83nE2fyyYy6fI04juFK8uX8r1flx5uDGR86T4mprcrAmDzslksKYsozJjEdyccpfHJ2Lmc7z0a4HPfnkpW8y3669m6nIcWbSHzln/nyj6RlR+T8qV879XeTLttNG0ey99cxQuzWbQ9k1umX0Vym/Ka/AUsYRJTRydAdT4LnodJJzj3YPEC7n0xiTtnTSQlsjJCu+scRehAEGJjiWn5rf49qc5nwfx3GfudiQyKrJMkSZIkSZIkSdLpfWfvSy+9SE1NDTNn3s24ceNag16A+Ph4cnJymDnzbqqrq/nd737Xrm97dRT8bD4lCeOZNn0G03LiWPvQU5Q0tNQHKXr6EQrC9ZM/Vc3iuQvZ3FK/dSk/eb6aS2+awTem38jQnU8xb2WgdfTQB9XUJefwjekzWj85aa3V7TQeqOPs4VPatf3G547R+GQkj+GWW8Yz9K8d9AIVG9YRmxDD+j8dvicfu1A9dfuDNEaW/y01baHk9Vh6nbGe0j3tqxqDdewPhmfbFGT/Scw9dvgkpk4Z02HQS+R1jlDF2gWPsLY6svzvRFOQ/fvqT/i+S5IkSZIkSZIk/b05bWHvwYMHyc/PZ8KEiSQmJgKwd+9efvnLX/Kb3/yGd999F4BzzjmHL3xhAgUF+YRCoYhRWgTYW5NJTk4aCfHxJAy8muwB5Wx+K1y9N5+12zMZH65PHjmFL6aUsKq4DoCat6voe+V4svrEEx+fTNbln6b+jXKqwt2r99WQ1C+F+Pj41k/scTYZExvbrm1828bBAEW5i1myeClrt1exOXcxBeEgse6NXHLfaJ4TAHvyWfJaOGDttJ8dG7bTkusFXltMwc4aNuctbR5ra5t+QKi6jNXLFrNkcS5Fuw7X1ZQuZ0l+Zev34Ft5LFlTybHuLE1lFBVfwKWfH0zngiIqjqivI7AulyWLF7M0r4yatgO1qVuSW0Sg/RSpKc9j6eLFLMktoyZy//hxxm1Ze1nuYpYsW0NlEIJ7ishtuU4w3G7dYpaXtb1oiIrVi1m7/Zirbe+NIor6jeSLgztT8NqWyNoTU1dObm4Zga1rWLo4l811QH0VWzZX0TqzppbnuJjc0hoqX1vc/ndAsPVe5G6oCT+rOjbn5lL6/j5Kc9u0rzv8+1pd1tL2SHVv5JJbFqDiD0tZklvePJfj3HMIUVPW8rwinuVx+h1xnQPlrF6cT2VTm/57S1i6rISalj67ws9yWR5l1e1X0Pqcl62h8kC7KkmSJEmSJEmSJEU4bWHv1q0VxMTEkJWVBcAHH3zA3LkPU1v7Prt37+bRR+e1tr300kvp1KkTW7dubTNCW+lM/M4NDGo5yrZhCxU7U0juF/7+zm6qBg4mtfWo2xj6D0imcndzkJoweipTP5vUUknV1i2QkkJLyd6qKmI+KCf3Zz9hzs9yKdoTThNPVtMWlv7wEQoaLiB1YDL1q57m2YIiKsMJ7od7yvjzng8Pt6+upGhbSwRWQ2VxZWsgVrOtiNznXmB7txRSz6un4PGfktuy+/TtPH760AtUJaSROrAz5T9/gAXrmtO5hCGD6LzqcZZuBYJl/GZhCd0vSuFY2XVow3pKBg4l8/wMMnv9kZKWAB2AIGXPPchjG6D/wDSSP1jF7B8spaKpua7k6Qea6zKGkkoJj83LpWVvcF3+I8z+1W7iB6aR2rWUhcveiBh3Dk/vOJuhGUNJ3reK2Y+saQ3fa7YVkbswl70pQ0ntspmn5/+Ep1bVcUHGUBLf/i1zFpUQApITYP3KotZ+1K0jd+V+uvc51mrbClFSXMKgoZkkD82kx4aS8LpOUjDAn9c8y6L8EMkD+9OrS7jsjQDNT7qOggUPsiTQndSBacS98SxPryhq9zvYV/hbCg4mkZoST+WyB3jqjyEgjl79+5PQ5SwSLkjjgl5xzb+vH8+ntOtIrvpMKnWrHuSx/IiEPezDPWWsXriQgoPJpPZPIK6De16XP5/Zq/aT+pmrubRrKY/9+PBzPl6/I67TNZmYqqUUtHncFa8+T3mXJBKAYNlCHn52C3EZQxn6D/vJe+gR1u4NN9y6lPsfySeYkkbqP3xI7q9eYd/hYSRJkiRJkiRJkhThNIa92zj//PNbv7/88sskJiZy++13cOeddzJ16tR27fv27cu2bccKe9sKUvbr59gx8nrG9Gguqdq7FyLeaZqQmARNR9n3+HYei/IS+Px1LUcvh4hPziABSMuZwheH1JA398cs3xXRr42qFbO5665vtn4eymuOvkIlaylIvp7bJ2SROTyLnFtyGPwXnEHb//KbyBmZSeZnb2RSVj1/fqOqOaTMzeXsCd9k8mczyRx+FTffOpaaF1c378rtlMbEf/k0ry/LZe2Lv6HqMzeTc17kyC1ClPypnEGXZBJDEiNGJFFa2maH655XWL7t0/y/23LIGp5J1oQ7uPPLmSSEAGLJ/JcH+K/bcsganE5mTg6faihj816AAGtfeZ9L/3kKVw4Pz39U+GG1jFuZxc1fHsugwelkXX8rOTGrKGzz+NOuvZErB6eTmZNN6p4QaTlXMWhwOldedzlJb5Y3r3XgaC6tX09Jy87pjSVUjRhDZpfD4xxTQwklb6aTOTQGzs0i69xSSk7k53c03UYz+earyBqeTlLktXetZXXNSG6+6Soyh2cy5stTGNO80b3VWZnXM+mzmWSOzGHy1SlsfrMciCEpPZ2+cWfTd1Amg86LgdoAO5oGM3pUCgl9Mpj49Qe4ffSxz/2OH30jN1+VRWZ6EjEd3PM9uytJzhxDRp8EUj57K//1nYnNfzzRQb8jrkM82ZelU1LcHMjTtIWSDUlkj0oGAryyfAcjbr6RMYPTGTRyIrf8YwyrXt0ChChak0/fCXcwcWTzvZiaM5hT/LMLSZIkSZIkSZKkvwunLewNhY5MOc8444zW/3bpEhtZTWPjkX3aC1K28Pss5stMy0luLU3skdCuFUDdvqO86PTtPObMLWXQ16eQ1Xr5GFLGTuHmCWNJ7ZNAysgbmXZtd9YWlLfv20bS5+7mRz/6cetn5lXNe4Sr99WQNCCF1qE7nUvSuW17npy4NsdDd+/REpZW8/77SaQNaHP/+vSlf3AXVS2bPC+cyE3Ja1i+LYtJlx/e0XyEunWsL08iPlRKyYYSKhrjoXjt4XchV9dQMyCVlNYgPZbkgSkkhAPN0L5SVi18hIe+P4v//PZ81rcmczXs35dK6gUt3yEp6fDzorqGmrp8fvb9WXzv+7P43vfnsGpPkA/rDzfp3PxTObomwu9xTSbz01BcEgCqKC6u4lPDT+z9yXXF69ic2J3QGyWUbKgg1AOK8sMB5cmKO/uYO6epraOu3T2MJyEi7D27zXOO7xFR2VbiSMZ/OsBT3/4Pvjf3CXL/WEX9cXYjtx23o3s+aMxEOv/hAf7zvtn8dHEe5fvCd6KDfkReB4gZmsmgN0uaf0dvFFF0XibDewDU8H5NHQU/axlrFg+vDhAMBoFq9tdG/K6Tklp330uSJEmSJEmSJOlIpy3s7dMnmd27d7d+v+KKK6iuruGxx+Yzd+7DzJ37cLv2u3btok+fPu3KIlXlzWdh1eXc+eUM4tvs5I1JSCT2narDx/kCe9+pIjm5TcAYLGPRgldIuvEOctod8xsiWBck1CY0i+8Zf/RdwSdg3772x+oePE4Yx6GOwu1j2Ufd/jZfGz6knkTiWzZ5BovIL08mNaaIoh1t2kWo21hCZWI8VG6h4q0tVLx3Nn17lFNS1mbttfsOv3u2rYYSnpqdR3DkTdz5rfv47wf+PWLHajV1bTtGrjXtC9zznfv4bvhz/3//mMkZ7ZuciORR2fRaV0TFnhLWN4wm68LIFkdTx4aSShJ6wo63mtdeHXs+CW+WUNoSdH9cOh3lHh7vN3FcsaROuJv/fmAW0yZmEnp9PrOXH34/c4eOd8/PG83U7/6Y++++kZzzqlg++wmKWiZ9vH5H0yWTsSO2s764ipLiUgZdOpLD+4/T+Pzdh8f67qwH+dGNLYNF/K6bTvXfhyRJkiRJkiRJ0t+H0xj29uHgwYMUFRUB0K1bN6ZPn06PHj04//x+fO1r01rbrl+/nsbGRvr27dtmhPaq8n7CnNKhzJh+FUkRRzZzYRbZDa+wujScTr2dx/LiJDKHh3f8BstY9MPn4EvfYXJG5I7iel7/xbf56SvhqDgUIDevnJSUlIh2HUsanEHchgLKwjtcg2V5FLS8jxToHBNDVWUldU1AUx1FxWWHK09YEoMGx/F6QVnrEbdVr+ZTMTiddGh+R+zPnufDq6cw9StZVDyzkM1HDTDr2LCxkszrpjLphhtaP7denc7m9euaw8mB6QzaWUjB2+EuwTKe/t5Pmt+x2lDPh03nknphArExwNsl/Ll1rekMGlxJYWH4njZVsTqvzVoHpjNoSz5rW8ZtCpD7s4WUHGUzdod6ZDL03FLW5JbROSuT1ni/ppyiDYGjHwO8r4TSQCbjbzm87kk33MpVA8spKD5qtH3qLswkc28uL26oI0SIureWk7cpstHxtf7BwJ58FjyTT80ZsST0y+TqT51PMNhmi+3xHPeeB9n8/CMsfStETNdkUrNHk96tng8bO+p3bKnDP03VG8speWsolw5v+eOKdAYN3kLBq4f/LCOw4gkWbag5yu86SNnL+e3+gCO4vYSi7S1vtZYkSZIkSZIkSVKnb37zm/8VWfhx6N69O7t372bdutcYNmwYcXFxdO3alYyMoaSnp9O1a1cAampqeOqpn5Oens7o0Z+JHKZZ9Rr+56k/sm9/BYV5K1m5svnzpzOHkT2gGxBPWmoXChY9wa/XriEvfy8XfukWxg84G4DNv57NS5Uh3v7Ty619V658j/PGDSWJLvRL7cX23z7JwrxC8lbm88HQKdxyZV+6HCUK31u2koL8gjbjrGRlWScuGTWAbt3TGHjmyzz+P8soXLeG9e+lkBa7Ey68howkOPu8c2h4ZSHPvLSGdesqSE7vx1sf9mHc0CRgL2Urq0gaN5Sk8HX2JjX3AziwrYA/0bze+AEX0aX4Fzz+m7UU/iGXV6szuPXWKzgnBqryHuXp6iu480tpdOmeRmrDCp54PZ5RQ5PaHzW891V+9ft4sr88lKQ26zzzHNi5bD0Hsy6lf9fzGJyylxcXPEXua4WsXFVOt2v+lS+ld4Mu55JY/zJPL8yjsHAtBYFEzutUQ/ywbAZ0PZPz0vtQueRRFr68jsK1m+h5UT921fYke9QAusWcx+B+7/Db8Lgvr8inbuB4rstMJOaIte+lbGUF3bKzGdAVOLCNwoIDpIbvE3Shb6cKnltziCu+ciX9w1l+zfpfsGBFPUMuT6fn4eUBUJW/hN91G80/X9L2kOAzSfpoF88XNTDy0v6E2txvDmyjsJTmZ9ymB4TnE1nXtiymNxmXnEv58p+zdNWrbGq8jMzeGwl0yyZ7QLd2zxWAvWWsrEoK/ya60fXgep5b+CJloUFcNrQ3DcW/4ufL1lJYkMuqrb34whdz6Ne9zXzCjhj3uPc8hm4xe1jx5DPhukLqP/UVvpiZSMxx+x3lOi0S4mn4/XLKMr7AVy5u2fJ9Juel9+edZY/y9MpCCtfkUvD+QMZfl0lCDMQPuIhOf/j/LFheyLo/rKemXxqdd9L6rCt+/yN+8ec+jByRTOSrkSVJkiRJkiRJkv4enREI7DkUWfhxCQaDzJ37MPv37+eGG75MRkb7s1/LyspYvHgxPXrE8/WvT6dLl788wgk1hIjpcsw3qB5fQ5BQTCwxkTuHT1YoSF0ohvjYalb/eDZV4zo49vZUNQSpOxRDfMQ7Uz9+IYJ1IWK6HuXedDCH0IEgxB6lX1hH9Sci9McnuLc0k/v/NfPY7879WwqFIObwzMqe+SZrBtzHnaMPH258Ujq45x059j0/znM+br9T0BAkSCyxR/knHwrWEYqJb94xLkmSJEmSJEmSpGM6rWEvwMGDB3nhhRdYt+41YmNj6d27N6FQiPffryUY/JDLLhvF+PHjOeussyK7/h9QdXrD3r97Acr+UM761a+Q+C8PMPGE3tf7VxbawtLZT1BxYQ5XDown9E4RL6yFz39rKlk9IhtLkiRJkiRJkiRJJ+60h70tdu3aSUXFVgKB3QD07duXAQMupF+/fpFN/w8JUVVeSrBPJikGex+/hirKNlTSOXkQg84/xV2yfw2hGioK11Pydh2dE9PIysok+RM8XUmSJEmSJEmSJEWHv1rYK0mSJEmSJEmSJEn6+JwZWSBJkiRJkiRJkiRJ+uQz7JUkSZIkSZIkSZKkKGTYK0mSJEmSJEmSJElRyLBXkiRJkiRJkiRJkqKQYa8kSZIkSZIkSZIkRSHDXkmSJEmSJEmSJEmKQv8Lpj8ip+Sd+lYAAAAASUVORK5CYII=;" vertex="1" parent="1">
          <mxGeometry x="-7" y="2610" width="1915" height="274" as="geometry" />
        </mxCell>
        <mxCell id="xLVCNm-1Cixip9Uiv8k9-5" value="Learn more" style="rounded=1;whiteSpace=wrap;html=1;arcSize=50;fontFamily=Inter;fontSource=https%3A%2F%2Ffonts.googleapis.com%2Fcss%3Ffamily%3DInter;fillColor=light-dark(#FFFFFF,#EDEDED);strokeColor=#F57A2F;fontStyle=1;fontColor=#F57A2F;fontSize=14;strokeWidth=2;" vertex="1" parent="1">
          <mxGeometry x="892" y="460" width="126" height="44" as="geometry" />
        </mxCell>
        <mxCell id="xLVCNm-1Cixip9Uiv8k9-7" value="" style="verticalLabelPosition=bottom;shadow=0;dashed=0;align=center;html=1;verticalAlign=top;strokeWidth=1;shape=mxgraph.mockup.graphics.simpleIcon;strokeColor=#666666;fillColor=#f5f5f5;fontColor=#333333;" vertex="1" parent="1">
          <mxGeometry x="155" y="540" width="1610" height="390" as="geometry" />
        </mxCell>
        <mxCell id="xLVCNm-1Cixip9Uiv8k9-9" value="&lt;b&gt;&lt;font&gt;Adults Classes&lt;/font&gt;&lt;/b&gt;" style="text;html=1;align=center;verticalAlign=middle;whiteSpace=wrap;rounded=0;fontFamily=DM Sans;fontSource=https%3A%2F%2Ffonts.googleapis.com%2Fcss%3Ffamily%3DDM%2BSans;fontSize=28;fontColor=#000000;" vertex="1" parent="1">
          <mxGeometry x="800.5" y="395" width="309" height="60" as="geometry" />
        </mxCell>
        <mxCell id="xLVCNm-1Cixip9Uiv8k9-14" value="" style="rounded=0;whiteSpace=wrap;html=1;strokeColor=none;fillColor=#FFF4E1;" vertex="1" parent="1">
          <mxGeometry x="-5" y="1000" width="1910" height="670" as="geometry" />
        </mxCell>
        <mxCell id="xLVCNm-1Cixip9Uiv8k9-16" value="" style="verticalLabelPosition=bottom;shadow=0;dashed=0;align=center;html=1;verticalAlign=top;strokeWidth=1;shape=mxgraph.mockup.graphics.simpleIcon;strokeColor=#666666;fillColor=#f5f5f5;fontColor=#333333;" vertex="1" parent="1">
          <mxGeometry x="150" y="1210" width="1610" height="390" as="geometry" />
        </mxCell>
        <mxCell id="xLVCNm-1Cixip9Uiv8k9-17" value="&lt;b&gt;&lt;font&gt;Kids Classes&lt;/font&gt;&lt;/b&gt;" style="text;html=1;align=center;verticalAlign=middle;whiteSpace=wrap;rounded=0;fontFamily=DM Sans;fontSource=https%3A%2F%2Ffonts.googleapis.com%2Fcss%3Ffamily%3DDM%2BSans;fontSize=28;fontColor=#000000;" vertex="1" parent="1">
          <mxGeometry x="788.5" y="1060" width="309" height="60" as="geometry" />
        </mxCell>
        <mxCell id="xLVCNm-1Cixip9Uiv8k9-18" value="Book a free trial" style="rounded=1;whiteSpace=wrap;html=1;arcSize=50;fontFamily=Inter;fontSource=https%3A%2F%2Ffonts.googleapis.com%2Fcss%3Ffamily%3DInter;fillColor=light-dark(#F57A2F,#EDEDED);strokeColor=#F57A2F;fontStyle=1;fontColor=#FFFFFF;fontSize=14;strokeWidth=2;" vertex="1" parent="1">
          <mxGeometry x="887" y="280" width="147" height="44" as="geometry" />
        </mxCell>
        <mxCell id="xLVCNm-1Cixip9Uiv8k9-20" value="Learn more" style="rounded=1;whiteSpace=wrap;html=1;arcSize=50;fontFamily=Inter;fontSource=https%3A%2F%2Ffonts.googleapis.com%2Fcss%3Ffamily%3DInter;fillColor=light-dark(#FFFFFF,#EDEDED);strokeColor=#F57A2F;fontStyle=1;fontColor=#F57A2F;fontSize=14;strokeWidth=2;" vertex="1" parent="1">
          <mxGeometry x="880" y="1120" width="126" height="44" as="geometry" />
        </mxCell>
        <mxCell id="xLVCNm-1Cixip9Uiv8k9-21" value="" style="verticalLabelPosition=bottom;shadow=0;dashed=0;align=center;html=1;verticalAlign=top;strokeWidth=1;shape=mxgraph.mockup.graphics.simpleIcon;strokeColor=#666666;fillColor=#f5f5f5;fontColor=#333333;" vertex="1" parent="1">
          <mxGeometry x="138" y="1880" width="1610" height="390" as="geometry" />
        </mxCell>
        <mxCell id="xLVCNm-1Cixip9Uiv8k9-22" value="&lt;b&gt;&lt;font&gt;Weekly Classes&lt;/font&gt;&lt;/b&gt;" style="text;html=1;align=center;verticalAlign=middle;whiteSpace=wrap;rounded=0;fontFamily=DM Sans;fontSource=https%3A%2F%2Ffonts.googleapis.com%2Fcss%3Ffamily%3DDM%2BSans;fontSize=28;fontColor=#000000;" vertex="1" parent="1">
          <mxGeometry x="788.5" y="1710" width="309" height="60" as="geometry" />
        </mxCell>
        <mxCell id="xLVCNm-1Cixip9Uiv8k9-23" value="&lt;font&gt;Existing Equinox member?&amp;nbsp;&lt;/font&gt;&lt;div&gt;&lt;font&gt;&lt;br&gt;&lt;/font&gt;&lt;/div&gt;&lt;div&gt;&lt;font&gt;Select the available class to sign-in&lt;/font&gt;&lt;/div&gt;" style="text;html=1;align=center;verticalAlign=middle;whiteSpace=wrap;rounded=0;fontFamily=Inter;fontSource=https%3A%2F%2Ffonts.googleapis.com%2Fcss%3Ffamily%3DInter;fontSize=16;fontColor=#6E6E6E;" vertex="1" parent="1">
          <mxGeometry x="740" y="1776" width="391.5" height="60" as="geometry" />
        </mxCell>
        <mxCell id="xLVCNm-1Cixip9Uiv8k9-25" value="" style="shape=or;whiteSpace=wrap;html=1;rotation=-90;strokeColor=none;fillColor=#F57A2F;" vertex="1" parent="1">
          <mxGeometry x="875.75" y="1587.75" width="149.5" height="1895" as="geometry" />
        </mxCell>
        <mxCell id="xLVCNm-1Cixip9Uiv8k9-26" value="Book a free trial" style="rounded=1;whiteSpace=wrap;html=1;arcSize=50;fontFamily=Inter;fontSource=https%3A%2F%2Ffonts.googleapis.com%2Fcss%3Ffamily%3DInter;fillColor=light-dark(#FFFFFF,#EDEDED);strokeColor=#F57A2F;fontStyle=1;fontColor=#F57A2F;fontSize=14;strokeWidth=2;" vertex="1" parent="1">
          <mxGeometry x="795.75" y="2508.25" width="280" height="54" as="geometry" />
        </mxCell>
        <mxCell id="xLVCNm-1Cixip9Uiv8k9-27" value="See our regular schedule for &lt;u style=&quot;line-height: 150%;&quot;&gt;adults&lt;/u&gt; and &lt;u style=&quot;line-height: 150%;&quot;&gt;kids&lt;/u&gt; classes, and our &lt;u style=&quot;line-height: 150%;&quot;&gt;live weekly schedule&lt;/u&gt;" style="text;html=1;align=center;verticalAlign=middle;whiteSpace=wrap;rounded=0;fontFamily=Inter;fontSource=https%3A%2F%2Ffonts.googleapis.com%2Fcss%3Ffamily%3DInter;fontSize=16;fontColor=#6E6E6E;" vertex="1" parent="1">
          <mxGeometry x="730" y="200" width="460" height="60" as="geometry" />
        </mxCell>
      </root>
    </mxGraphModel>
  </diagram>
</mxfile>
